solid OpenSCAD_Model
  facet normal -0.965926 -0.258819 0
    outer loop
      vertex -39.6194 65.9353 12.7
      vertex -40.1 67.7291 12.7
      vertex -40.1 67.7291 2
    endloop
  endfacet
  facet normal -0.965926 -0.258819 0
    outer loop
      vertex -39.6194 65.9353 2
      vertex -39.6194 65.9353 12.7
      vertex -40.1 67.7291 2
    endloop
  endfacet
  facet normal 0.258819 -0.965926 0
    outer loop
      vertex -34.7187 64.6222 2
      vertex -36.5125 64.1416 12.7
      vertex -36.5125 64.1416 2
    endloop
  endfacet
  facet normal 0.258819 -0.965926 0
    outer loop
      vertex -34.7187 64.6222 2
      vertex -34.7187 64.6222 12.7
      vertex -36.5125 64.1416 12.7
    endloop
  endfacet
  facet normal 0 0 -1
    outer loop
      vertex -46.275 74.3166 0
      vertex 46.275 -74.3166 0
      vertex -46.275 -74.3166 0
    endloop
  endfacet
  facet normal 0 0 -1
    outer loop
      vertex -46.275 74.3166 0
      vertex 46.275 74.3166 0
      vertex 46.275 -74.3166 0
    endloop
  endfacet
  facet normal 0.258819 0.965926 0
    outer loop
      vertex -36.5125 71.3166 12.7
      vertex -34.7187 70.836 2
      vertex -36.5125 71.3166 2
    endloop
  endfacet
  facet normal 0.258819 0.965926 0
    outer loop
      vertex -36.5125 71.3166 12.7
      vertex -34.7187 70.836 12.7
      vertex -34.7187 70.836 2
    endloop
  endfacet
  facet normal -0.707107 -0.707107 0
    outer loop
      vertex -38.3062 64.6222 12.7
      vertex -39.6194 65.9353 12.7
      vertex -39.6194 65.9353 2
    endloop
  endfacet
  facet normal -0.707107 -0.707107 0
    outer loop
      vertex -38.3062 64.6222 2
      vertex -38.3062 64.6222 12.7
      vertex -39.6194 65.9353 2
    endloop
  endfacet
  facet normal -0.965926 0.258819 0
    outer loop
      vertex -40.1 67.7291 12.7
      vertex -39.6194 69.5228 2
      vertex -40.1 67.7291 2
    endloop
  endfacet
  facet normal -0.965926 0.258819 0
    outer loop
      vertex -40.1 67.7291 12.7
      vertex -39.6194 69.5228 12.7
      vertex -39.6194 69.5228 2
    endloop
  endfacet
  facet normal 0.707107 0.707107 0
    outer loop
      vertex -33.4056 69.5228 12.7
      vertex -33.4056 69.5228 2
      vertex -34.7187 70.836 2
    endloop
  endfacet
  facet normal 0.707107 0.707107 0
    outer loop
      vertex -34.7187 70.836 12.7
      vertex -33.4056 69.5228 12.7
      vertex -34.7187 70.836 2
    endloop
  endfacet
  facet normal 0 0 1
    outer loop
      vertex -38.3062 70.836 12.7
      vertex -39.6194 69.5228 12.7
      vertex -37.7968 68.6622 12.7
    endloop
  endfacet
  facet normal 0 0 1
    outer loop
      vertex -37.7968 68.6622 12.7
      vertex -39.6194 69.5228 12.7
      vertex -40.1 67.7291 12.7
    endloop
  endfacet
  facet normal 0 -0 1
    outer loop
      vertex -38.3062 64.6222 12.7
      vertex -37.7968 66.796 12.7
      vertex -39.6194 65.9353 12.7
    endloop
  endfacet
  facet normal 0 0 1
    outer loop
      vertex -36.0219 66.2193 12.7
      vertex -37.7968 66.796 12.7
      vertex -38.3062 64.6222 12.7
    endloop
  endfacet
  facet normal 0 0 1
    outer loop
      vertex -36.5125 71.3166 12.7
      vertex -38.3062 70.836 12.7
      vertex -36.0219 69.2389 12.7
    endloop
  endfacet
  facet normal 0 -0 1
    outer loop
      vertex -33.4056 65.9353 12.7
      vertex -32.925 67.7291 12.7
      vertex -34.925 67.7291 12.7
    endloop
  endfacet
  facet normal 0 0 1
    outer loop
      vertex -32.925 67.7291 12.7
      vertex -33.4056 69.5228 12.7
      vertex -34.925 67.7291 12.7
    endloop
  endfacet
  facet normal 0 0 1
    outer loop
      vertex -36.0219 66.2193 12.7
      vertex -38.3062 64.6222 12.7
      vertex -36.5125 64.1416 12.7
    endloop
  endfacet
  facet normal 0 0 1
    outer loop
      vertex -37.7968 66.796 12.7
      vertex -40.1 67.7291 12.7
      vertex -39.6194 65.9353 12.7
    endloop
  endfacet
  facet normal 0 0 1
    outer loop
      vertex -36.5125 71.3166 12.7
      vertex -36.0219 69.2389 12.7
      vertex -34.7187 70.836 12.7
    endloop
  endfacet
  facet normal 0 0 1
    outer loop
      vertex -37.7968 68.6622 12.7
      vertex -40.1 67.7291 12.7
      vertex -37.7968 66.796 12.7
    endloop
  endfacet
  facet normal 0 -0 1
    outer loop
      vertex -37.7968 68.6622 12.7
      vertex -36.0219 69.2389 12.7
      vertex -38.3062 70.836 12.7
    endloop
  endfacet
  facet normal 0 0 1
    outer loop
      vertex -36.0219 69.2389 12.7
      vertex -33.4056 69.5228 12.7
      vertex -34.7187 70.836 12.7
    endloop
  endfacet
  facet normal -0 0 1
    outer loop
      vertex -36.0219 69.2389 12.7
      vertex -34.925 67.7291 12.7
      vertex -33.4056 69.5228 12.7
    endloop
  endfacet
  facet normal 0 0 1
    outer loop
      vertex -36.0219 66.2193 12.7
      vertex -34.7187 64.6222 12.7
      vertex -33.4056 65.9353 12.7
    endloop
  endfacet
  facet normal 0 0 1
    outer loop
      vertex -34.925 67.7291 12.7
      vertex -36.0219 66.2193 12.7
      vertex -33.4056 65.9353 12.7
    endloop
  endfacet
  facet normal 0 0 1
    outer loop
      vertex -36.0219 66.2193 12.7
      vertex -36.5125 64.1416 12.7
      vertex -34.7187 64.6222 12.7
    endloop
  endfacet
  facet normal -0.258819 -0.965926 0
    outer loop
      vertex -36.5125 64.1416 2
      vertex -38.3062 64.6222 12.7
      vertex -38.3062 64.6222 2
    endloop
  endfacet
  facet normal -0.258819 -0.965926 0
    outer loop
      vertex -36.5125 64.1416 2
      vertex -36.5125 64.1416 12.7
      vertex -38.3062 64.6222 12.7
    endloop
  endfacet
  facet normal 0.965926 -0.258819 0
    outer loop
      vertex -32.925 67.7291 2
      vertex -33.4056 65.9353 12.7
      vertex -33.4056 65.9353 2
    endloop
  endfacet
  facet normal 0.965926 -0.258819 0
    outer loop
      vertex -32.925 67.7291 2
      vertex -32.925 67.7291 12.7
      vertex -33.4056 65.9353 12.7
    endloop
  endfacet
  facet normal 0.707107 -0.707107 0
    outer loop
      vertex -33.4056 65.9353 2
      vertex -34.7187 64.6222 12.7
      vertex -34.7187 64.6222 2
    endloop
  endfacet
  facet normal 0.707107 -0.707107 0
    outer loop
      vertex -33.4056 65.9353 2
      vertex -33.4056 65.9353 12.7
      vertex -34.7187 64.6222 12.7
    endloop
  endfacet
  facet normal -0.258819 0.965926 0
    outer loop
      vertex -38.3062 70.836 12.7
      vertex -36.5125 71.3166 2
      vertex -38.3062 70.836 2
    endloop
  endfacet
  facet normal -0.258819 0.965926 0
    outer loop
      vertex -38.3062 70.836 12.7
      vertex -36.5125 71.3166 12.7
      vertex -36.5125 71.3166 2
    endloop
  endfacet
  facet normal 0.965926 0.258819 0
    outer loop
      vertex -32.925 67.7291 12.7
      vertex -32.925 67.7291 2
      vertex -33.4056 69.5228 2
    endloop
  endfacet
  facet normal 0.965926 0.258819 0
    outer loop
      vertex -33.4056 69.5228 12.7
      vertex -32.925 67.7291 12.7
      vertex -33.4056 69.5228 2
    endloop
  endfacet
  facet normal -0.707107 0.707107 0
    outer loop
      vertex -39.6194 69.5228 12.7
      vertex -38.3062 70.836 2
      vertex -39.6194 69.5228 2
    endloop
  endfacet
  facet normal -0.707107 0.707107 0
    outer loop
      vertex -39.6194 69.5228 12.7
      vertex -38.3062 70.836 12.7
      vertex -38.3062 70.836 2
    endloop
  endfacet
  facet normal 1 -0 0
    outer loop
      vertex -37.7968 66.796 12.7
      vertex -37.7968 68.6622 2
      vertex -37.7968 68.6622 12.7
    endloop
  endfacet
  facet normal 1 0 0
    outer loop
      vertex -37.7968 66.796 12.7
      vertex -37.7968 66.796 2
      vertex -37.7968 68.6622 2
    endloop
  endfacet
  facet normal 0.309017 0.951057 -0
    outer loop
      vertex -36.0219 66.2193 2
      vertex -37.7968 66.796 12.7
      vertex -36.0219 66.2193 12.7
    endloop
  endfacet
  facet normal 0.309017 0.951057 0
    outer loop
      vertex -36.0219 66.2193 2
      vertex -37.7968 66.796 2
      vertex -37.7968 66.796 12.7
    endloop
  endfacet
  facet normal 0.309017 -0.951057 0
    outer loop
      vertex -37.7968 68.6622 12.7
      vertex -36.0219 69.2389 2
      vertex -36.0219 69.2389 12.7
    endloop
  endfacet
  facet normal 0.309017 -0.951057 0
    outer loop
      vertex -37.7968 68.6622 12.7
      vertex -37.7968 68.6622 2
      vertex -36.0219 69.2389 2
    endloop
  endfacet
  facet normal -0.809017 -0.587785 0
    outer loop
      vertex -36.0219 69.2389 2
      vertex -34.925 67.7291 2
      vertex -34.925 67.7291 12.7
    endloop
  endfacet
  facet normal -0.809017 -0.587785 -0
    outer loop
      vertex -36.0219 69.2389 12.7
      vertex -36.0219 69.2389 2
      vertex -34.925 67.7291 12.7
    endloop
  endfacet
  facet normal -0.809017 0.587785 0
    outer loop
      vertex -34.925 67.7291 2
      vertex -36.0219 66.2193 12.7
      vertex -34.925 67.7291 12.7
    endloop
  endfacet
  facet normal -0.809017 0.587785 0
    outer loop
      vertex -34.925 67.7291 2
      vertex -36.0219 66.2193 2
      vertex -36.0219 66.2193 12.7
    endloop
  endfacet
  facet normal -0.965926 -0.258819 0
    outer loop
      vertex -39.6194 -66.3478 12.7
      vertex -40.1 -64.5541 12.7
      vertex -40.1 -64.5541 2
    endloop
  endfacet
  facet normal -0.965926 -0.258819 0
    outer loop
      vertex -39.6194 -66.3478 2
      vertex -39.6194 -66.3478 12.7
      vertex -40.1 -64.5541 2
    endloop
  endfacet
  facet normal 0.258819 -0.965926 0
    outer loop
      vertex -34.7187 -67.661 2
      vertex -36.5125 -68.1416 12.7
      vertex -36.5125 -68.1416 2
    endloop
  endfacet
  facet normal 0.258819 -0.965926 0
    outer loop
      vertex -34.7187 -67.661 2
      vertex -34.7187 -67.661 12.7
      vertex -36.5125 -68.1416 12.7
    endloop
  endfacet
  facet normal 0.258819 0.965926 0
    outer loop
      vertex -36.5125 -60.9666 12.7
      vertex -34.7187 -61.4472 2
      vertex -36.5125 -60.9666 2
    endloop
  endfacet
  facet normal 0.258819 0.965926 0
    outer loop
      vertex -36.5125 -60.9666 12.7
      vertex -34.7187 -61.4472 12.7
      vertex -34.7187 -61.4472 2
    endloop
  endfacet
  facet normal -0.707107 -0.707107 0
    outer loop
      vertex -38.3062 -67.661 12.7
      vertex -39.6194 -66.3478 12.7
      vertex -39.6194 -66.3478 2
    endloop
  endfacet
  facet normal -0.707107 -0.707107 0
    outer loop
      vertex -38.3062 -67.661 2
      vertex -38.3062 -67.661 12.7
      vertex -39.6194 -66.3478 2
    endloop
  endfacet
  facet normal -0.965926 0.258819 0
    outer loop
      vertex -40.1 -64.5541 12.7
      vertex -39.6194 -62.7603 2
      vertex -40.1 -64.5541 2
    endloop
  endfacet
  facet normal -0.965926 0.258819 0
    outer loop
      vertex -40.1 -64.5541 12.7
      vertex -39.6194 -62.7603 12.7
      vertex -39.6194 -62.7603 2
    endloop
  endfacet
  facet normal 0.707107 0.707107 0
    outer loop
      vertex -33.4056 -62.7603 12.7
      vertex -33.4056 -62.7603 2
      vertex -34.7187 -61.4472 2
    endloop
  endfacet
  facet normal 0.707107 0.707107 0
    outer loop
      vertex -34.7187 -61.4472 12.7
      vertex -33.4056 -62.7603 12.7
      vertex -34.7187 -61.4472 2
    endloop
  endfacet
  facet normal 0 0 1
    outer loop
      vertex -38.3062 -61.4472 12.7
      vertex -39.6194 -62.7603 12.7
      vertex -37.7968 -63.621 12.7
    endloop
  endfacet
  facet normal 0 0 1
    outer loop
      vertex -37.7968 -63.621 12.7
      vertex -39.6194 -62.7603 12.7
      vertex -40.1 -64.5541 12.7
    endloop
  endfacet
  facet normal 0 -0 1
    outer loop
      vertex -38.3062 -67.661 12.7
      vertex -37.7968 -65.4872 12.7
      vertex -39.6194 -66.3478 12.7
    endloop
  endfacet
  facet normal 0 0 1
    outer loop
      vertex -36.0219 -66.0639 12.7
      vertex -37.7968 -65.4872 12.7
      vertex -38.3062 -67.661 12.7
    endloop
  endfacet
  facet normal 0 0 1
    outer loop
      vertex -36.5125 -60.9666 12.7
      vertex -38.3062 -61.4472 12.7
      vertex -36.0219 -63.0443 12.7
    endloop
  endfacet
  facet normal 0 -0 1
    outer loop
      vertex -33.4056 -66.3478 12.7
      vertex -32.925 -64.5541 12.7
      vertex -34.925 -64.5541 12.7
    endloop
  endfacet
  facet normal 0 0 1
    outer loop
      vertex -32.925 -64.5541 12.7
      vertex -33.4056 -62.7603 12.7
      vertex -34.925 -64.5541 12.7
    endloop
  endfacet
  facet normal 0 0 1
    outer loop
      vertex -36.0219 -66.0639 12.7
      vertex -38.3062 -67.661 12.7
      vertex -36.5125 -68.1416 12.7
    endloop
  endfacet
  facet normal 0 0 1
    outer loop
      vertex -37.7968 -65.4872 12.7
      vertex -40.1 -64.5541 12.7
      vertex -39.6194 -66.3478 12.7
    endloop
  endfacet
  facet normal 0 0 1
    outer loop
      vertex -36.5125 -60.9666 12.7
      vertex -36.0219 -63.0443 12.7
      vertex -34.7187 -61.4472 12.7
    endloop
  endfacet
  facet normal 0 0 1
    outer loop
      vertex -37.7968 -63.621 12.7
      vertex -40.1 -64.5541 12.7
      vertex -37.7968 -65.4872 12.7
    endloop
  endfacet
  facet normal 0 -0 1
    outer loop
      vertex -37.7968 -63.621 12.7
      vertex -36.0219 -63.0443 12.7
      vertex -38.3062 -61.4472 12.7
    endloop
  endfacet
  facet normal 0 0 1
    outer loop
      vertex -36.0219 -63.0443 12.7
      vertex -33.4056 -62.7603 12.7
      vertex -34.7187 -61.4472 12.7
    endloop
  endfacet
  facet normal -0 0 1
    outer loop
      vertex -36.0219 -63.0443 12.7
      vertex -34.925 -64.5541 12.7
      vertex -33.4056 -62.7603 12.7
    endloop
  endfacet
  facet normal 0 0 1
    outer loop
      vertex -36.0219 -66.0639 12.7
      vertex -34.7187 -67.661 12.7
      vertex -33.4056 -66.3478 12.7
    endloop
  endfacet
  facet normal 0 0 1
    outer loop
      vertex -34.925 -64.5541 12.7
      vertex -36.0219 -66.0639 12.7
      vertex -33.4056 -66.3478 12.7
    endloop
  endfacet
  facet normal 0 0 1
    outer loop
      vertex -36.0219 -66.0639 12.7
      vertex -36.5125 -68.1416 12.7
      vertex -34.7187 -67.661 12.7
    endloop
  endfacet
  facet normal -0.258819 -0.965926 0
    outer loop
      vertex -36.5125 -68.1416 2
      vertex -38.3062 -67.661 12.7
      vertex -38.3062 -67.661 2
    endloop
  endfacet
  facet normal -0.258819 -0.965926 0
    outer loop
      vertex -36.5125 -68.1416 2
      vertex -36.5125 -68.1416 12.7
      vertex -38.3062 -67.661 12.7
    endloop
  endfacet
  facet normal 0.965926 -0.258819 0
    outer loop
      vertex -32.925 -64.5541 2
      vertex -33.4056 -66.3478 12.7
      vertex -33.4056 -66.3478 2
    endloop
  endfacet
  facet normal 0.965926 -0.258819 0
    outer loop
      vertex -32.925 -64.5541 2
      vertex -32.925 -64.5541 12.7
      vertex -33.4056 -66.3478 12.7
    endloop
  endfacet
  facet normal 0.707107 -0.707107 0
    outer loop
      vertex -33.4056 -66.3478 2
      vertex -34.7187 -67.661 12.7
      vertex -34.7187 -67.661 2
    endloop
  endfacet
  facet normal 0.707107 -0.707107 0
    outer loop
      vertex -33.4056 -66.3478 2
      vertex -33.4056 -66.3478 12.7
      vertex -34.7187 -67.661 12.7
    endloop
  endfacet
  facet normal -0.258819 0.965926 0
    outer loop
      vertex -38.3062 -61.4472 12.7
      vertex -36.5125 -60.9666 2
      vertex -38.3062 -61.4472 2
    endloop
  endfacet
  facet normal -0.258819 0.965926 0
    outer loop
      vertex -38.3062 -61.4472 12.7
      vertex -36.5125 -60.9666 12.7
      vertex -36.5125 -60.9666 2
    endloop
  endfacet
  facet normal 0.965926 0.258819 0
    outer loop
      vertex -32.925 -64.5541 12.7
      vertex -32.925 -64.5541 2
      vertex -33.4056 -62.7603 2
    endloop
  endfacet
  facet normal 0.965926 0.258819 0
    outer loop
      vertex -33.4056 -62.7603 12.7
      vertex -32.925 -64.5541 12.7
      vertex -33.4056 -62.7603 2
    endloop
  endfacet
  facet normal -0.707107 0.707107 0
    outer loop
      vertex -39.6194 -62.7603 12.7
      vertex -38.3062 -61.4472 2
      vertex -39.6194 -62.7603 2
    endloop
  endfacet
  facet normal -0.707107 0.707107 0
    outer loop
      vertex -39.6194 -62.7603 12.7
      vertex -38.3062 -61.4472 12.7
      vertex -38.3062 -61.4472 2
    endloop
  endfacet
  facet normal 1 -0 0
    outer loop
      vertex -37.7968 -65.4872 12.7
      vertex -37.7968 -63.621 2
      vertex -37.7968 -63.621 12.7
    endloop
  endfacet
  facet normal 1 0 0
    outer loop
      vertex -37.7968 -65.4872 12.7
      vertex -37.7968 -65.4872 2
      vertex -37.7968 -63.621 2
    endloop
  endfacet
  facet normal 0.309017 0.951057 -0
    outer loop
      vertex -36.0219 -66.0639 2
      vertex -37.7968 -65.4872 12.7
      vertex -36.0219 -66.0639 12.7
    endloop
  endfacet
  facet normal 0.309017 0.951057 0
    outer loop
      vertex -36.0219 -66.0639 2
      vertex -37.7968 -65.4872 2
      vertex -37.7968 -65.4872 12.7
    endloop
  endfacet
  facet normal 0.309017 -0.951057 0
    outer loop
      vertex -37.7968 -63.621 12.7
      vertex -36.0219 -63.0443 2
      vertex -36.0219 -63.0443 12.7
    endloop
  endfacet
  facet normal 0.309017 -0.951057 0
    outer loop
      vertex -37.7968 -63.621 12.7
      vertex -37.7968 -63.621 2
      vertex -36.0219 -63.0443 2
    endloop
  endfacet
  facet normal -0.809017 -0.587785 0
    outer loop
      vertex -36.0219 -63.0443 2
      vertex -34.925 -64.5541 2
      vertex -34.925 -64.5541 12.7
    endloop
  endfacet
  facet normal -0.809017 -0.587785 -0
    outer loop
      vertex -36.0219 -63.0443 12.7
      vertex -36.0219 -63.0443 2
      vertex -34.925 -64.5541 12.7
    endloop
  endfacet
  facet normal -0.809017 0.587785 0
    outer loop
      vertex -34.925 -64.5541 2
      vertex -36.0219 -66.0639 12.7
      vertex -34.925 -64.5541 12.7
    endloop
  endfacet
  facet normal -0.809017 0.587785 0
    outer loop
      vertex -34.925 -64.5541 2
      vertex -36.0219 -66.0639 2
      vertex -36.0219 -66.0639 12.7
    endloop
  endfacet
  facet normal -0.965926 -0.258819 0
    outer loop
      vertex 36.5806 65.9353 12.7
      vertex 36.1 67.7291 12.7
      vertex 36.1 67.7291 2
    endloop
  endfacet
  facet normal -0.965926 -0.258819 0
    outer loop
      vertex 36.5806 65.9353 2
      vertex 36.5806 65.9353 12.7
      vertex 36.1 67.7291 2
    endloop
  endfacet
  facet normal 0.258819 -0.965926 0
    outer loop
      vertex 41.4812 64.6222 2
      vertex 39.6875 64.1416 12.7
      vertex 39.6875 64.1416 2
    endloop
  endfacet
  facet normal 0.258819 -0.965926 0
    outer loop
      vertex 41.4812 64.6222 2
      vertex 41.4812 64.6222 12.7
      vertex 39.6875 64.1416 12.7
    endloop
  endfacet
  facet normal 0.258819 0.965926 0
    outer loop
      vertex 39.6875 71.3166 12.7
      vertex 41.4812 70.836 2
      vertex 39.6875 71.3166 2
    endloop
  endfacet
  facet normal 0.258819 0.965926 0
    outer loop
      vertex 39.6875 71.3166 12.7
      vertex 41.4812 70.836 12.7
      vertex 41.4812 70.836 2
    endloop
  endfacet
  facet normal -0.707107 -0.707107 0
    outer loop
      vertex 37.8937 64.6222 12.7
      vertex 36.5806 65.9353 12.7
      vertex 36.5806 65.9353 2
    endloop
  endfacet
  facet normal -0.707107 -0.707107 0
    outer loop
      vertex 37.8937 64.6222 2
      vertex 37.8937 64.6222 12.7
      vertex 36.5806 65.9353 2
    endloop
  endfacet
  facet normal -0.965926 0.258819 0
    outer loop
      vertex 36.1 67.7291 12.7
      vertex 36.5806 69.5228 2
      vertex 36.1 67.7291 2
    endloop
  endfacet
  facet normal -0.965926 0.258819 0
    outer loop
      vertex 36.1 67.7291 12.7
      vertex 36.5806 69.5228 12.7
      vertex 36.5806 69.5228 2
    endloop
  endfacet
  facet normal 0.707107 0.707107 0
    outer loop
      vertex 42.7944 69.5228 12.7
      vertex 42.7944 69.5228 2
      vertex 41.4812 70.836 2
    endloop
  endfacet
  facet normal 0.707107 0.707107 0
    outer loop
      vertex 41.4812 70.836 12.7
      vertex 42.7944 69.5228 12.7
      vertex 41.4812 70.836 2
    endloop
  endfacet
  facet normal 0 0 1
    outer loop
      vertex 37.8937 70.836 12.7
      vertex 36.5806 69.5228 12.7
      vertex 38.4032 68.6622 12.7
    endloop
  endfacet
  facet normal 0 0 1
    outer loop
      vertex 38.4032 68.6622 12.7
      vertex 36.5806 69.5228 12.7
      vertex 36.1 67.7291 12.7
    endloop
  endfacet
  facet normal 0 -0 1
    outer loop
      vertex 37.8937 64.6222 12.7
      vertex 38.4032 66.796 12.7
      vertex 36.5806 65.9353 12.7
    endloop
  endfacet
  facet normal 0 0 1
    outer loop
      vertex 40.1781 66.2193 12.7
      vertex 38.4032 66.796 12.7
      vertex 37.8937 64.6222 12.7
    endloop
  endfacet
  facet normal 0 0 1
    outer loop
      vertex 39.6875 71.3166 12.7
      vertex 37.8937 70.836 12.7
      vertex 40.1781 69.2389 12.7
    endloop
  endfacet
  facet normal 0 -0 1
    outer loop
      vertex 42.7944 65.9353 12.7
      vertex 43.275 67.7291 12.7
      vertex 41.275 67.7291 12.7
    endloop
  endfacet
  facet normal 0 0 1
    outer loop
      vertex 43.275 67.7291 12.7
      vertex 42.7944 69.5228 12.7
      vertex 41.275 67.7291 12.7
    endloop
  endfacet
  facet normal 0 0 1
    outer loop
      vertex 40.1781 66.2193 12.7
      vertex 37.8937 64.6222 12.7
      vertex 39.6875 64.1416 12.7
    endloop
  endfacet
  facet normal 0 0 1
    outer loop
      vertex 38.4032 66.796 12.7
      vertex 36.1 67.7291 12.7
      vertex 36.5806 65.9353 12.7
    endloop
  endfacet
  facet normal 0 0 1
    outer loop
      vertex 39.6875 71.3166 12.7
      vertex 40.1781 69.2389 12.7
      vertex 41.4812 70.836 12.7
    endloop
  endfacet
  facet normal 0 0 1
    outer loop
      vertex 38.4032 68.6622 12.7
      vertex 36.1 67.7291 12.7
      vertex 38.4032 66.796 12.7
    endloop
  endfacet
  facet normal 0 -0 1
    outer loop
      vertex 38.4032 68.6622 12.7
      vertex 40.1781 69.2389 12.7
      vertex 37.8937 70.836 12.7
    endloop
  endfacet
  facet normal 0 0 1
    outer loop
      vertex 40.1781 69.2389 12.7
      vertex 42.7944 69.5228 12.7
      vertex 41.4812 70.836 12.7
    endloop
  endfacet
  facet normal -0 0 1
    outer loop
      vertex 40.1781 69.2389 12.7
      vertex 41.275 67.7291 12.7
      vertex 42.7944 69.5228 12.7
    endloop
  endfacet
  facet normal 0 0 1
    outer loop
      vertex 40.1781 66.2193 12.7
      vertex 41.4812 64.6222 12.7
      vertex 42.7944 65.9353 12.7
    endloop
  endfacet
  facet normal 0 0 1
    outer loop
      vertex 41.275 67.7291 12.7
      vertex 40.1781 66.2193 12.7
      vertex 42.7944 65.9353 12.7
    endloop
  endfacet
  facet normal 0 0 1
    outer loop
      vertex 40.1781 66.2193 12.7
      vertex 39.6875 64.1416 12.7
      vertex 41.4812 64.6222 12.7
    endloop
  endfacet
  facet normal -0.258819 -0.965926 0
    outer loop
      vertex 39.6875 64.1416 2
      vertex 37.8937 64.6222 12.7
      vertex 37.8937 64.6222 2
    endloop
  endfacet
  facet normal -0.258819 -0.965926 0
    outer loop
      vertex 39.6875 64.1416 2
      vertex 39.6875 64.1416 12.7
      vertex 37.8937 64.6222 12.7
    endloop
  endfacet
  facet normal 0.965926 -0.258819 0
    outer loop
      vertex 43.275 67.7291 2
      vertex 42.7944 65.9353 12.7
      vertex 42.7944 65.9353 2
    endloop
  endfacet
  facet normal 0.965926 -0.258819 0
    outer loop
      vertex 43.275 67.7291 2
      vertex 43.275 67.7291 12.7
      vertex 42.7944 65.9353 12.7
    endloop
  endfacet
  facet normal 0.707107 -0.707107 0
    outer loop
      vertex 42.7944 65.9353 2
      vertex 41.4812 64.6222 12.7
      vertex 41.4812 64.6222 2
    endloop
  endfacet
  facet normal 0.707107 -0.707107 0
    outer loop
      vertex 42.7944 65.9353 2
      vertex 42.7944 65.9353 12.7
      vertex 41.4812 64.6222 12.7
    endloop
  endfacet
  facet normal -0.258819 0.965926 0
    outer loop
      vertex 37.8937 70.836 12.7
      vertex 39.6875 71.3166 2
      vertex 37.8937 70.836 2
    endloop
  endfacet
  facet normal -0.258819 0.965926 0
    outer loop
      vertex 37.8937 70.836 12.7
      vertex 39.6875 71.3166 12.7
      vertex 39.6875 71.3166 2
    endloop
  endfacet
  facet normal 0.965926 0.258819 0
    outer loop
      vertex 43.275 67.7291 12.7
      vertex 43.275 67.7291 2
      vertex 42.7944 69.5228 2
    endloop
  endfacet
  facet normal 0.965926 0.258819 0
    outer loop
      vertex 42.7944 69.5228 12.7
      vertex 43.275 67.7291 12.7
      vertex 42.7944 69.5228 2
    endloop
  endfacet
  facet normal -0.707107 0.707107 0
    outer loop
      vertex 36.5806 69.5228 12.7
      vertex 37.8937 70.836 2
      vertex 36.5806 69.5228 2
    endloop
  endfacet
  facet normal -0.707107 0.707107 0
    outer loop
      vertex 36.5806 69.5228 12.7
      vertex 37.8937 70.836 12.7
      vertex 37.8937 70.836 2
    endloop
  endfacet
  facet normal 1 -0 0
    outer loop
      vertex 38.4032 66.796 12.7
      vertex 38.4032 68.6622 2
      vertex 38.4032 68.6622 12.7
    endloop
  endfacet
  facet normal 1 0 0
    outer loop
      vertex 38.4032 66.796 12.7
      vertex 38.4032 66.796 2
      vertex 38.4032 68.6622 2
    endloop
  endfacet
  facet normal 0.309017 0.951057 -0
    outer loop
      vertex 40.1781 66.2193 2
      vertex 38.4032 66.796 12.7
      vertex 40.1781 66.2193 12.7
    endloop
  endfacet
  facet normal 0.309017 0.951057 0
    outer loop
      vertex 40.1781 66.2193 2
      vertex 38.4032 66.796 2
      vertex 38.4032 66.796 12.7
    endloop
  endfacet
  facet normal 0.309017 -0.951057 0
    outer loop
      vertex 38.4032 68.6622 12.7
      vertex 40.1781 69.2389 2
      vertex 40.1781 69.2389 12.7
    endloop
  endfacet
  facet normal 0.309017 -0.951057 0
    outer loop
      vertex 38.4032 68.6622 12.7
      vertex 38.4032 68.6622 2
      vertex 40.1781 69.2389 2
    endloop
  endfacet
  facet normal -0.809017 -0.587785 0
    outer loop
      vertex 40.1781 69.2389 2
      vertex 41.275 67.7291 2
      vertex 41.275 67.7291 12.7
    endloop
  endfacet
  facet normal -0.809017 -0.587785 -0
    outer loop
      vertex 40.1781 69.2389 12.7
      vertex 40.1781 69.2389 2
      vertex 41.275 67.7291 12.7
    endloop
  endfacet
  facet normal -0.809017 0.587785 0
    outer loop
      vertex 41.275 67.7291 2
      vertex 40.1781 66.2193 12.7
      vertex 41.275 67.7291 12.7
    endloop
  endfacet
  facet normal -0.809017 0.587785 0
    outer loop
      vertex 41.275 67.7291 2
      vertex 40.1781 66.2193 2
      vertex 40.1781 66.2193 12.7
    endloop
  endfacet
  facet normal -0.965926 -0.258819 0
    outer loop
      vertex 36.5806 -66.3478 12.7
      vertex 36.1 -64.5541 12.7
      vertex 36.1 -64.5541 2
    endloop
  endfacet
  facet normal -0.965926 -0.258819 0
    outer loop
      vertex 36.5806 -66.3478 2
      vertex 36.5806 -66.3478 12.7
      vertex 36.1 -64.5541 2
    endloop
  endfacet
  facet normal 0.258819 -0.965926 0
    outer loop
      vertex 41.4812 -67.661 2
      vertex 39.6875 -68.1416 12.7
      vertex 39.6875 -68.1416 2
    endloop
  endfacet
  facet normal 0.258819 -0.965926 0
    outer loop
      vertex 41.4812 -67.661 2
      vertex 41.4812 -67.661 12.7
      vertex 39.6875 -68.1416 12.7
    endloop
  endfacet
  facet normal 0.258819 0.965926 0
    outer loop
      vertex 39.6875 -60.9666 12.7
      vertex 41.4812 -61.4472 2
      vertex 39.6875 -60.9666 2
    endloop
  endfacet
  facet normal 0.258819 0.965926 0
    outer loop
      vertex 39.6875 -60.9666 12.7
      vertex 41.4812 -61.4472 12.7
      vertex 41.4812 -61.4472 2
    endloop
  endfacet
  facet normal -0.707107 -0.707107 0
    outer loop
      vertex 37.8937 -67.661 12.7
      vertex 36.5806 -66.3478 12.7
      vertex 36.5806 -66.3478 2
    endloop
  endfacet
  facet normal -0.707107 -0.707107 0
    outer loop
      vertex 37.8937 -67.661 2
      vertex 37.8937 -67.661 12.7
      vertex 36.5806 -66.3478 2
    endloop
  endfacet
  facet normal -0.965926 0.258819 0
    outer loop
      vertex 36.1 -64.5541 12.7
      vertex 36.5806 -62.7603 2
      vertex 36.1 -64.5541 2
    endloop
  endfacet
  facet normal -0.965926 0.258819 0
    outer loop
      vertex 36.1 -64.5541 12.7
      vertex 36.5806 -62.7603 12.7
      vertex 36.5806 -62.7603 2
    endloop
  endfacet
  facet normal 0.707107 0.707107 0
    outer loop
      vertex 42.7944 -62.7603 12.7
      vertex 42.7944 -62.7603 2
      vertex 41.4812 -61.4472 2
    endloop
  endfacet
  facet normal 0.707107 0.707107 0
    outer loop
      vertex 41.4812 -61.4472 12.7
      vertex 42.7944 -62.7603 12.7
      vertex 41.4812 -61.4472 2
    endloop
  endfacet
  facet normal 0 0 1
    outer loop
      vertex 37.8937 -61.4472 12.7
      vertex 36.5806 -62.7603 12.7
      vertex 38.4032 -63.621 12.7
    endloop
  endfacet
  facet normal 0 0 1
    outer loop
      vertex 38.4032 -63.621 12.7
      vertex 36.5806 -62.7603 12.7
      vertex 36.1 -64.5541 12.7
    endloop
  endfacet
  facet normal 0 -0 1
    outer loop
      vertex 37.8937 -67.661 12.7
      vertex 38.4032 -65.4872 12.7
      vertex 36.5806 -66.3478 12.7
    endloop
  endfacet
  facet normal 0 0 1
    outer loop
      vertex 40.1781 -66.0639 12.7
      vertex 38.4032 -65.4872 12.7
      vertex 37.8937 -67.661 12.7
    endloop
  endfacet
  facet normal 0 0 1
    outer loop
      vertex 39.6875 -60.9666 12.7
      vertex 37.8937 -61.4472 12.7
      vertex 40.1781 -63.0443 12.7
    endloop
  endfacet
  facet normal 0 -0 1
    outer loop
      vertex 42.7944 -66.3478 12.7
      vertex 43.275 -64.5541 12.7
      vertex 41.275 -64.5541 12.7
    endloop
  endfacet
  facet normal 0 0 1
    outer loop
      vertex 43.275 -64.5541 12.7
      vertex 42.7944 -62.7603 12.7
      vertex 41.275 -64.5541 12.7
    endloop
  endfacet
  facet normal 0 0 1
    outer loop
      vertex 40.1781 -66.0639 12.7
      vertex 37.8937 -67.661 12.7
      vertex 39.6875 -68.1416 12.7
    endloop
  endfacet
  facet normal 0 0 1
    outer loop
      vertex 38.4032 -65.4872 12.7
      vertex 36.1 -64.5541 12.7
      vertex 36.5806 -66.3478 12.7
    endloop
  endfacet
  facet normal 0 0 1
    outer loop
      vertex 39.6875 -60.9666 12.7
      vertex 40.1781 -63.0443 12.7
      vertex 41.4812 -61.4472 12.7
    endloop
  endfacet
  facet normal 0 0 1
    outer loop
      vertex 38.4032 -63.621 12.7
      vertex 36.1 -64.5541 12.7
      vertex 38.4032 -65.4872 12.7
    endloop
  endfacet
  facet normal 0 -0 1
    outer loop
      vertex 38.4032 -63.621 12.7
      vertex 40.1781 -63.0443 12.7
      vertex 37.8937 -61.4472 12.7
    endloop
  endfacet
  facet normal 0 0 1
    outer loop
      vertex 40.1781 -63.0443 12.7
      vertex 42.7944 -62.7603 12.7
      vertex 41.4812 -61.4472 12.7
    endloop
  endfacet
  facet normal -0 0 1
    outer loop
      vertex 40.1781 -63.0443 12.7
      vertex 41.275 -64.5541 12.7
      vertex 42.7944 -62.7603 12.7
    endloop
  endfacet
  facet normal 0 0 1
    outer loop
      vertex 40.1781 -66.0639 12.7
      vertex 41.4812 -67.661 12.7
      vertex 42.7944 -66.3478 12.7
    endloop
  endfacet
  facet normal 0 0 1
    outer loop
      vertex 41.275 -64.5541 12.7
      vertex 40.1781 -66.0639 12.7
      vertex 42.7944 -66.3478 12.7
    endloop
  endfacet
  facet normal 0 0 1
    outer loop
      vertex 40.1781 -66.0639 12.7
      vertex 39.6875 -68.1416 12.7
      vertex 41.4812 -67.661 12.7
    endloop
  endfacet
  facet normal -0.258819 -0.965926 0
    outer loop
      vertex 39.6875 -68.1416 2
      vertex 37.8937 -67.661 12.7
      vertex 37.8937 -67.661 2
    endloop
  endfacet
  facet normal -0.258819 -0.965926 0
    outer loop
      vertex 39.6875 -68.1416 2
      vertex 39.6875 -68.1416 12.7
      vertex 37.8937 -67.661 12.7
    endloop
  endfacet
  facet normal 0.965926 -0.258819 0
    outer loop
      vertex 43.275 -64.5541 2
      vertex 42.7944 -66.3478 12.7
      vertex 42.7944 -66.3478 2
    endloop
  endfacet
  facet normal 0.965926 -0.258819 0
    outer loop
      vertex 43.275 -64.5541 2
      vertex 43.275 -64.5541 12.7
      vertex 42.7944 -66.3478 12.7
    endloop
  endfacet
  facet normal 0.707107 -0.707107 0
    outer loop
      vertex 42.7944 -66.3478 2
      vertex 41.4812 -67.661 12.7
      vertex 41.4812 -67.661 2
    endloop
  endfacet
  facet normal 0.707107 -0.707107 0
    outer loop
      vertex 42.7944 -66.3478 2
      vertex 42.7944 -66.3478 12.7
      vertex 41.4812 -67.661 12.7
    endloop
  endfacet
  facet normal -0.258819 0.965926 0
    outer loop
      vertex 37.8937 -61.4472 12.7
      vertex 39.6875 -60.9666 2
      vertex 37.8937 -61.4472 2
    endloop
  endfacet
  facet normal -0.258819 0.965926 0
    outer loop
      vertex 37.8937 -61.4472 12.7
      vertex 39.6875 -60.9666 12.7
      vertex 39.6875 -60.9666 2
    endloop
  endfacet
  facet normal 0.965926 0.258819 0
    outer loop
      vertex 43.275 -64.5541 12.7
      vertex 43.275 -64.5541 2
      vertex 42.7944 -62.7603 2
    endloop
  endfacet
  facet normal 0.965926 0.258819 0
    outer loop
      vertex 42.7944 -62.7603 12.7
      vertex 43.275 -64.5541 12.7
      vertex 42.7944 -62.7603 2
    endloop
  endfacet
  facet normal -0.707107 0.707107 0
    outer loop
      vertex 36.5806 -62.7603 12.7
      vertex 37.8937 -61.4472 2
      vertex 36.5806 -62.7603 2
    endloop
  endfacet
  facet normal -0.707107 0.707107 0
    outer loop
      vertex 36.5806 -62.7603 12.7
      vertex 37.8937 -61.4472 12.7
      vertex 37.8937 -61.4472 2
    endloop
  endfacet
  facet normal 1 -0 0
    outer loop
      vertex 38.4032 -65.4872 12.7
      vertex 38.4032 -63.621 2
      vertex 38.4032 -63.621 12.7
    endloop
  endfacet
  facet normal 1 0 0
    outer loop
      vertex 38.4032 -65.4872 12.7
      vertex 38.4032 -65.4872 2
      vertex 38.4032 -63.621 2
    endloop
  endfacet
  facet normal 0.309017 0.951057 -0
    outer loop
      vertex 40.1781 -66.0639 2
      vertex 38.4032 -65.4872 12.7
      vertex 40.1781 -66.0639 12.7
    endloop
  endfacet
  facet normal 0.309017 0.951057 0
    outer loop
      vertex 40.1781 -66.0639 2
      vertex 38.4032 -65.4872 2
      vertex 38.4032 -65.4872 12.7
    endloop
  endfacet
  facet normal 0.309017 -0.951057 0
    outer loop
      vertex 38.4032 -63.621 12.7
      vertex 40.1781 -63.0443 2
      vertex 40.1781 -63.0443 12.7
    endloop
  endfacet
  facet normal 0.309017 -0.951057 0
    outer loop
      vertex 38.4032 -63.621 12.7
      vertex 38.4032 -63.621 2
      vertex 40.1781 -63.0443 2
    endloop
  endfacet
  facet normal -0.809017 -0.587785 0
    outer loop
      vertex 40.1781 -63.0443 2
      vertex 41.275 -64.5541 2
      vertex 41.275 -64.5541 12.7
    endloop
  endfacet
  facet normal -0.809017 -0.587785 -0
    outer loop
      vertex 40.1781 -63.0443 12.7
      vertex 40.1781 -63.0443 2
      vertex 41.275 -64.5541 12.7
    endloop
  endfacet
  facet normal -0.809017 0.587785 0
    outer loop
      vertex 41.275 -64.5541 2
      vertex 40.1781 -66.0639 12.7
      vertex 41.275 -64.5541 12.7
    endloop
  endfacet
  facet normal -0.809017 0.587785 0
    outer loop
      vertex 41.275 -64.5541 2
      vertex 40.1781 -66.0639 2
      vertex 40.1781 -66.0639 12.7
    endloop
  endfacet
  facet normal -1 0 0
    outer loop
      vertex -46.275 -74.3166 27
      vertex -46.275 74.3166 0
      vertex -46.275 -74.3166 0
    endloop
  endfacet
  facet normal -1 0 0
    outer loop
      vertex -46.275 -74.3166 27
      vertex -46.275 74.3166 27
      vertex -46.275 74.3166 0
    endloop
  endfacet
  facet normal -0 -1 0
    outer loop
      vertex 46.275 -74.3166 27
      vertex -46.275 -74.3166 27
      vertex -11.2019 -74.3166 18.7028
    endloop
  endfacet
  facet normal -0 -1 0
    outer loop
      vertex -15.5678 -74.3166 13.7747
      vertex -46.275 -74.3166 27
      vertex -46.275 -74.3166 0
    endloop
  endfacet
  facet normal -0 -1 -0
    outer loop
      vertex -15.5678 -74.3166 15.6893
      vertex -46.275 -74.3166 27
      vertex -15.5678 -74.3166 13.7747
    endloop
  endfacet
  facet normal -0 -1 0
    outer loop
      vertex -15.0735 -74.3166 16.6311
      vertex -46.275 -74.3166 27
      vertex -15.5678 -74.3166 15.6893
    endloop
  endfacet
  facet normal -0 -1 0
    outer loop
      vertex -14.678 -74.3166 17.3845
      vertex -46.275 -74.3166 27
      vertex -15.0735 -74.3166 16.6311
    endloop
  endfacet
  facet normal 0 -1 0
    outer loop
      vertex -46.275 -74.3166 27
      vertex -13.1024 -74.3166 18.4721
      vertex -11.2019 -74.3166 18.7028
    endloop
  endfacet
  facet normal -0 -1 0
    outer loop
      vertex -13.1024 -74.3166 18.4721
      vertex -46.275 -74.3166 27
      vertex -14.678 -74.3166 17.3845
    endloop
  endfacet
  facet normal 0 -1 0
    outer loop
      vertex -7.88763 -74.3166 15.5582
      vertex -7.684 -74.3166 14.732
      vertex 7.80023 -74.3166 15.6893
    endloop
  endfacet
  facet normal 0 -1 0
    outer loop
      vertex -8.14218 -74.3166 16.5909
      vertex 7.80023 -74.3166 15.6893
      vertex 8.29452 -74.3166 16.6311
    endloop
  endfacet
  facet normal 0 -1 0
    outer loop
      vertex -7.684 -74.3166 14.732
      vertex 7.80023 -74.3166 13.7747
      vertex 7.80023 -74.3166 15.6893
    endloop
  endfacet
  facet normal 0 -1 0
    outer loop
      vertex -8.84749 -74.3166 17.387
      vertex 8.68996 -74.3166 17.3845
      vertex -9.41174 -74.3166 18.0239
    endloop
  endfacet
  facet normal 0 -1 0
    outer loop
      vertex -8.14218 -74.3166 16.5909
      vertex 8.68996 -74.3166 17.3845
      vertex -8.84749 -74.3166 17.387
    endloop
  endfacet
  facet normal 0 -1 0
    outer loop
      vertex -7.88763 -74.3166 15.5582
      vertex 7.80023 -74.3166 15.6893
      vertex -8.14218 -74.3166 16.5909
    endloop
  endfacet
  facet normal 0 -1 -0
    outer loop
      vertex -7.684 -74.3166 14.732
      vertex -8.14218 -74.3166 12.8731
      vertex 7.80023 -74.3166 13.7747
    endloop
  endfacet
  facet normal 0 -1 0
    outer loop
      vertex -9.41174 -74.3166 11.4401
      vertex 10.2656 -74.3166 10.9919
      vertex 9.39023 -74.3166 11.5961
    endloop
  endfacet
  facet normal 0 -1 -0
    outer loop
      vertex -15.5678 -74.3166 13.7747
      vertex -46.275 -74.3166 0
      vertex -15.0735 -74.3166 12.8329
    endloop
  endfacet
  facet normal 0 -1 -0
    outer loop
      vertex -11.2019 -74.3166 10.7612
      vertex -46.275 -74.3166 0
      vertex 46.275 -74.3166 0
    endloop
  endfacet
  facet normal 0 -1 -0
    outer loop
      vertex -12.0465 -74.3166 10.8637
      vertex -46.275 -74.3166 0
      vertex -11.2019 -74.3166 10.7612
    endloop
  endfacet
  facet normal 0 -1 -0
    outer loop
      vertex -13.1024 -74.3166 10.9919
      vertex -46.275 -74.3166 0
      vertex -12.0465 -74.3166 10.8637
    endloop
  endfacet
  facet normal 0 -1 -0
    outer loop
      vertex -13.9778 -74.3166 11.5961
      vertex -46.275 -74.3166 0
      vertex -13.1024 -74.3166 10.9919
    endloop
  endfacet
  facet normal 0 -1 -0
    outer loop
      vertex -14.678 -74.3166 12.0795
      vertex -46.275 -74.3166 0
      vertex -13.9778 -74.3166 11.5961
    endloop
  endfacet
  facet normal 0 -1 -0
    outer loop
      vertex -15.0735 -74.3166 12.8329
      vertex -46.275 -74.3166 0
      vertex -14.678 -74.3166 12.0795
    endloop
  endfacet
  facet normal 0 -1 0
    outer loop
      vertex -9.41174 -74.3166 18.0239
      vertex 10.2656 -74.3166 18.4721
      vertex -11.2019 -74.3166 18.7028
    endloop
  endfacet
  facet normal 0 -1 0
    outer loop
      vertex -8.14218 -74.3166 16.5909
      vertex 8.29452 -74.3166 16.6311
      vertex 8.68996 -74.3166 17.3845
    endloop
  endfacet
  facet normal 0 -1 0
    outer loop
      vertex -9.41174 -74.3166 18.0239
      vertex 8.68996 -74.3166 17.3845
      vertex 10.2656 -74.3166 18.4721
    endloop
  endfacet
  facet normal 0 -1 0
    outer loop
      vertex -11.2019 -74.3166 18.7028
      vertex 12.1661 -74.3166 18.7028
      vertex 46.275 -74.3166 27
    endloop
  endfacet
  facet normal 0 -1 0
    outer loop
      vertex 10.2656 -74.3166 18.4721
      vertex 12.1661 -74.3166 18.7028
      vertex -11.2019 -74.3166 18.7028
    endloop
  endfacet
  facet normal 0 -1 0
    outer loop
      vertex -11.2019 -74.3166 10.7612
      vertex 46.275 -74.3166 0
      vertex 12.1661 -74.3166 10.7612
    endloop
  endfacet
  facet normal 0 -1 0
    outer loop
      vertex 12.1661 -74.3166 18.7028
      vertex 13.9563 -74.3166 18.0239
      vertex 46.275 -74.3166 27
    endloop
  endfacet
  facet normal 0 -1 0
    outer loop
      vertex 15.684 -74.3166 14.732
      vertex 46.275 -74.3166 0
      vertex 46.275 -74.3166 27
    endloop
  endfacet
  facet normal 0 -1 0
    outer loop
      vertex 14.5205 -74.3166 17.387
      vertex 46.275 -74.3166 27
      vertex 13.9563 -74.3166 18.0239
    endloop
  endfacet
  facet normal 0 -1 0
    outer loop
      vertex 15.2258 -74.3166 16.5909
      vertex 46.275 -74.3166 27
      vertex 14.5205 -74.3166 17.387
    endloop
  endfacet
  facet normal 0 -1 0
    outer loop
      vertex 15.4804 -74.3166 15.5582
      vertex 46.275 -74.3166 27
      vertex 15.2258 -74.3166 16.5909
    endloop
  endfacet
  facet normal 0 -1 0
    outer loop
      vertex 15.684 -74.3166 14.732
      vertex 46.275 -74.3166 27
      vertex 15.4804 -74.3166 15.5582
    endloop
  endfacet
  facet normal 0 -1 0
    outer loop
      vertex 15.2258 -74.3166 12.8731
      vertex 46.275 -74.3166 0
      vertex 15.684 -74.3166 14.732
    endloop
  endfacet
  facet normal 0 -1 0
    outer loop
      vertex 13.9563 -74.3166 11.4401
      vertex 46.275 -74.3166 0
      vertex 15.2258 -74.3166 12.8731
    endloop
  endfacet
  facet normal 0 -1 0
    outer loop
      vertex -11.2019 -74.3166 10.7612
      vertex 10.2656 -74.3166 10.9919
      vertex -9.41174 -74.3166 11.4401
    endloop
  endfacet
  facet normal 0 -1 0
    outer loop
      vertex 12.1661 -74.3166 10.7612
      vertex 46.275 -74.3166 0
      vertex 13.9563 -74.3166 11.4401
    endloop
  endfacet
  facet normal 0 -1 0
    outer loop
      vertex 12.1661 -74.3166 10.7612
      vertex 11.3215 -74.3166 10.8637
      vertex -11.2019 -74.3166 10.7612
    endloop
  endfacet
  facet normal -0 -1 0
    outer loop
      vertex 11.3215 -74.3166 10.8637
      vertex 10.2656 -74.3166 10.9919
      vertex -11.2019 -74.3166 10.7612
    endloop
  endfacet
  facet normal -0 -1 0
    outer loop
      vertex 8.68996 -74.3166 12.0795
      vertex -8.14218 -74.3166 12.8731
      vertex -9.41174 -74.3166 11.4401
    endloop
  endfacet
  facet normal 0 -1 0
    outer loop
      vertex -9.41174 -74.3166 11.4401
      vertex 9.39023 -74.3166 11.5961
      vertex 8.68996 -74.3166 12.0795
    endloop
  endfacet
  facet normal 0 -1 0
    outer loop
      vertex -8.14218 -74.3166 12.8731
      vertex 8.68996 -74.3166 12.0795
      vertex 8.29452 -74.3166 12.8329
    endloop
  endfacet
  facet normal 0 -1 0
    outer loop
      vertex -8.14218 -74.3166 12.8731
      vertex 8.29452 -74.3166 12.8329
      vertex 7.80023 -74.3166 13.7747
    endloop
  endfacet
  facet normal 0 1 0
    outer loop
      vertex 46.275 74.3166 27
      vertex 46.275 74.3166 0
      vertex 3.5 74.3166 14.732
    endloop
  endfacet
  facet normal 0 1 0
    outer loop
      vertex -46.275 74.3166 27
      vertex 3.5 74.3166 17.732
      vertex -3.5 74.3166 17.732
    endloop
  endfacet
  facet normal 0 1 0
    outer loop
      vertex -46.275 74.3166 27
      vertex -3.5 74.3166 14.732
      vertex -46.275 74.3166 0
    endloop
  endfacet
  facet normal 0 1 0
    outer loop
      vertex -3.5 74.3166 17.732
      vertex -3.5 74.3166 14.732
      vertex -46.275 74.3166 27
    endloop
  endfacet
  facet normal 0 1 0
    outer loop
      vertex 3.5 74.3166 14.732
      vertex 46.275 74.3166 0
      vertex -46.275 74.3166 0
    endloop
  endfacet
  facet normal 0 1 0
    outer loop
      vertex 46.275 74.3166 27
      vertex 3.5 74.3166 14.732
      vertex 3.5 74.3166 17.732
    endloop
  endfacet
  facet normal 0 1 0
    outer loop
      vertex 3.5 74.3166 14.732
      vertex -46.275 74.3166 0
      vertex -3.5 74.3166 14.732
    endloop
  endfacet
  facet normal 0 1 0
    outer loop
      vertex 46.275 74.3166 27
      vertex 3.5 74.3166 17.732
      vertex -46.275 74.3166 27
    endloop
  endfacet
  facet normal 1 0 0
    outer loop
      vertex 46.275 74.3166 0
      vertex 46.275 -74.3166 27
      vertex 46.275 -74.3166 0
    endloop
  endfacet
  facet normal 1 0 -0
    outer loop
      vertex 46.275 74.3166 0
      vertex 46.275 74.3166 27
      vertex 46.275 -74.3166 27
    endloop
  endfacet
  facet normal 1 -0 0
    outer loop
      vertex -44.275 -72.3166 27
      vertex -44.275 72.3166 2
      vertex -44.275 72.3166 27
    endloop
  endfacet
  facet normal 1 0 0
    outer loop
      vertex -44.275 -72.3166 27
      vertex -44.275 -72.3166 2
      vertex -44.275 72.3166 2
    endloop
  endfacet
  facet normal 0 1 0
    outer loop
      vertex 44.275 -72.3166 2
      vertex -44.275 -72.3166 2
      vertex -11.2019 -72.3166 10.7612
    endloop
  endfacet
  facet normal 0 1 0
    outer loop
      vertex -15.5678 -72.3166 13.7747
      vertex -44.275 -72.3166 2
      vertex -44.275 -72.3166 27
    endloop
  endfacet
  facet normal 0 1 0
    outer loop
      vertex -15.2712 -72.3166 13.2097
      vertex -44.275 -72.3166 2
      vertex -15.5678 -72.3166 13.7747
    endloop
  endfacet
  facet normal 0 1 0
    outer loop
      vertex -14.678 -72.3166 12.0795
      vertex -44.275 -72.3166 2
      vertex -15.2712 -72.3166 13.2097
    endloop
  endfacet
  facet normal 0 1 0
    outer loop
      vertex -13.6276 -72.3166 11.3545
      vertex -44.275 -72.3166 2
      vertex -14.678 -72.3166 12.0795
    endloop
  endfacet
  facet normal 0 1 0
    outer loop
      vertex -44.275 -72.3166 2
      vertex -13.1024 -72.3166 10.9919
      vertex -12.4689 -72.3166 10.915
    endloop
  endfacet
  facet normal 0 1 0
    outer loop
      vertex -13.1024 -72.3166 10.9919
      vertex -44.275 -72.3166 2
      vertex -13.6276 -72.3166 11.3545
    endloop
  endfacet
  facet normal 0 1 0
    outer loop
      vertex -44.275 -72.3166 2
      vertex -12.4689 -72.3166 10.915
      vertex -11.2019 -72.3166 10.7612
    endloop
  endfacet
  facet normal 0 1 0
    outer loop
      vertex -8.14218 -72.3166 12.8731
      vertex -7.684 -72.3166 14.732
      vertex 7.80023 -72.3166 13.7747
    endloop
  endfacet
  facet normal 0 1 0
    outer loop
      vertex -8.14218 -72.3166 12.8731
      vertex 7.80023 -72.3166 13.7747
      vertex 8.09681 -72.3166 13.2097
    endloop
  endfacet
  facet normal 0 1 0
    outer loop
      vertex -9.41174 -72.3166 11.4401
      vertex 10.2656 -72.3166 10.9919
      vertex -11.2019 -72.3166 10.7612
    endloop
  endfacet
  facet normal 0 1 0
    outer loop
      vertex -8.14218 -72.3166 12.8731
      vertex 8.68996 -72.3166 12.0795
      vertex -9.41174 -72.3166 11.4401
    endloop
  endfacet
  facet normal 0 1 0
    outer loop
      vertex -8.14218 -72.3166 16.5909
      vertex 8.09681 -72.3166 16.2543
      vertex 7.80023 -72.3166 15.6893
    endloop
  endfacet
  facet normal -0 1 0
    outer loop
      vertex -8.14218 -72.3166 16.5909
      vertex 8.68996 -72.3166 17.3845
      vertex 8.09681 -72.3166 16.2543
    endloop
  endfacet
  facet normal -0 1 0
    outer loop
      vertex -11.2019 -72.3166 18.7028
      vertex 12.1661 -72.3166 18.7028
      vertex 10.2656 -72.3166 18.4721
    endloop
  endfacet
  facet normal -0 1 0
    outer loop
      vertex -8.56536 -72.3166 17.0686
      vertex 8.68996 -72.3166 17.3845
      vertex -8.14218 -72.3166 16.5909
    endloop
  endfacet
  facet normal 0 1 -0
    outer loop
      vertex -15.5678 -72.3166 13.7747
      vertex -44.275 -72.3166 27
      vertex -15.5678 -72.3166 15.6893
    endloop
  endfacet
  facet normal 0 1 -0
    outer loop
      vertex -11.2019 -72.3166 18.7028
      vertex -44.275 -72.3166 27
      vertex 44.275 -72.3166 27
    endloop
  endfacet
  facet normal 0 1 -0
    outer loop
      vertex -13.1024 -72.3166 18.4721
      vertex -44.275 -72.3166 27
      vertex -11.2019 -72.3166 18.7028
    endloop
  endfacet
  facet normal 0 1 -0
    outer loop
      vertex -14.678 -72.3166 17.3845
      vertex -44.275 -72.3166 27
      vertex -13.1024 -72.3166 18.4721
    endloop
  endfacet
  facet normal 0 1 -0
    outer loop
      vertex -15.2712 -72.3166 16.2543
      vertex -44.275 -72.3166 27
      vertex -14.678 -72.3166 17.3845
    endloop
  endfacet
  facet normal 0 1 -0
    outer loop
      vertex -15.5678 -72.3166 15.6893
      vertex -44.275 -72.3166 27
      vertex -15.2712 -72.3166 16.2543
    endloop
  endfacet
  facet normal -0 1 0
    outer loop
      vertex -8.14218 -72.3166 12.8731
      vertex 8.09681 -72.3166 13.2097
      vertex 8.68996 -72.3166 12.0795
    endloop
  endfacet
  facet normal -0 1 0
    outer loop
      vertex -9.41174 -72.3166 11.4401
      vertex 8.68996 -72.3166 12.0795
      vertex 9.74037 -72.3166 11.3545
    endloop
  endfacet
  facet normal 0 1 0
    outer loop
      vertex -9.41174 -72.3166 11.4401
      vertex 9.74037 -72.3166 11.3545
      vertex 10.2656 -72.3166 10.9919
    endloop
  endfacet
  facet normal -0 1 0
    outer loop
      vertex -11.2019 -72.3166 10.7612
      vertex 12.1661 -72.3166 10.7612
      vertex 44.275 -72.3166 2
    endloop
  endfacet
  facet normal 0 1 0
    outer loop
      vertex 10.2656 -72.3166 10.9919
      vertex 10.8991 -72.3166 10.915
      vertex -11.2019 -72.3166 10.7612
    endloop
  endfacet
  facet normal 0 1 0
    outer loop
      vertex 10.8991 -72.3166 10.915
      vertex 12.1661 -72.3166 10.7612
      vertex -11.2019 -72.3166 10.7612
    endloop
  endfacet
  facet normal 0 1 0
    outer loop
      vertex -11.2019 -72.3166 18.7028
      vertex 44.275 -72.3166 27
      vertex 12.1661 -72.3166 18.7028
    endloop
  endfacet
  facet normal -0 1 0
    outer loop
      vertex 12.1661 -72.3166 10.7612
      vertex 13.9563 -72.3166 11.4401
      vertex 44.275 -72.3166 2
    endloop
  endfacet
  facet normal -0 1 0
    outer loop
      vertex 15.684 -72.3166 14.732
      vertex 44.275 -72.3166 27
      vertex 44.275 -72.3166 2
    endloop
  endfacet
  facet normal 0 1 0
    outer loop
      vertex 15.2258 -72.3166 12.8731
      vertex 44.275 -72.3166 2
      vertex 13.9563 -72.3166 11.4401
    endloop
  endfacet
  facet normal 0 1 0
    outer loop
      vertex 15.684 -72.3166 14.732
      vertex 44.275 -72.3166 2
      vertex 15.2258 -72.3166 12.8731
    endloop
  endfacet
  facet normal -0 1 0
    outer loop
      vertex 15.3785 -72.3166 15.9713
      vertex 44.275 -72.3166 27
      vertex 15.684 -72.3166 14.732
    endloop
  endfacet
  facet normal -0 1 0
    outer loop
      vertex 15.2258 -72.3166 16.5909
      vertex 44.275 -72.3166 27
      vertex 15.3785 -72.3166 15.9713
    endloop
  endfacet
  facet normal -0 1 0
    outer loop
      vertex 14.8026 -72.3166 17.0686
      vertex 44.275 -72.3166 27
      vertex 15.2258 -72.3166 16.5909
    endloop
  endfacet
  facet normal 0 1 0
    outer loop
      vertex 8.68996 -72.3166 17.3845
      vertex -8.56536 -72.3166 17.0686
      vertex -9.41174 -72.3166 18.0239
    endloop
  endfacet
  facet normal -0 1 0
    outer loop
      vertex 13.9563 -72.3166 18.0239
      vertex 44.275 -72.3166 27
      vertex 14.8026 -72.3166 17.0686
    endloop
  endfacet
  facet normal 0 1 0
    outer loop
      vertex -11.2019 -72.3166 18.7028
      vertex 10.2656 -72.3166 18.4721
      vertex -9.41174 -72.3166 18.0239
    endloop
  endfacet
  facet normal -0 1 0
    outer loop
      vertex 12.1661 -72.3166 18.7028
      vertex 44.275 -72.3166 27
      vertex 13.9563 -72.3166 18.0239
    endloop
  endfacet
  facet normal -0 1 0
    outer loop
      vertex -9.41174 -72.3166 18.0239
      vertex 10.2656 -72.3166 18.4721
      vertex 8.68996 -72.3166 17.3845
    endloop
  endfacet
  facet normal 0 1 0
    outer loop
      vertex -8.14218 -72.3166 16.5909
      vertex 7.80023 -72.3166 15.6893
      vertex -7.98945 -72.3166 15.9713
    endloop
  endfacet
  facet normal 0 1 0
    outer loop
      vertex -7.98945 -72.3166 15.9713
      vertex 7.80023 -72.3166 15.6893
      vertex -7.684 -72.3166 14.732
    endloop
  endfacet
  facet normal -0 1 0
    outer loop
      vertex -7.684 -72.3166 14.732
      vertex 7.80023 -72.3166 15.6893
      vertex 7.80023 -72.3166 13.7747
    endloop
  endfacet
  facet normal 0 0 1
    outer loop
      vertex -44.275 72.3166 2
      vertex -44.275 -72.3166 2
      vertex -39.6194 -62.7603 2
    endloop
  endfacet
  facet normal 0 0 1
    outer loop
      vertex -44.275 -72.3166 2
      vertex -40.1 -64.5541 2
      vertex -39.6194 -62.7603 2
    endloop
  endfacet
  facet normal 0 0 1
    outer loop
      vertex -44.275 -72.3166 2
      vertex 44.275 -72.3166 2
      vertex -34.7187 -67.661 2
    endloop
  endfacet
  facet normal 0 0 1
    outer loop
      vertex -40.1 67.7291 2
      vertex -44.275 72.3166 2
      vertex -39.6194 65.9353 2
    endloop
  endfacet
  facet normal -0 0 1
    outer loop
      vertex -34.7187 -67.661 2
      vertex 44.275 -72.3166 2
      vertex 37.8937 -67.661 2
    endloop
  endfacet
  facet normal 0 0 1
    outer loop
      vertex -39.6194 -62.7603 2
      vertex -38.3062 -61.4472 2
      vertex -38.3062 64.6222 2
    endloop
  endfacet
  facet normal 0 -0 1
    outer loop
      vertex -33.4056 -62.7603 2
      vertex 36.5806 -62.7603 2
      vertex -34.7187 -61.4472 2
    endloop
  endfacet
  facet normal 0 -0 1
    outer loop
      vertex -32.925 -64.5541 2
      vertex 36.1 -64.5541 2
      vertex -33.4056 -62.7603 2
    endloop
  endfacet
  facet normal 0 0 1
    outer loop
      vertex 36.5806 -66.3478 2
      vertex 36.1 -64.5541 2
      vertex -32.925 -64.5541 2
    endloop
  endfacet
  facet normal 0 0 1
    outer loop
      vertex -44.275 -72.3166 2
      vertex -34.7187 -67.661 2
      vertex -36.5125 -68.1416 2
    endloop
  endfacet
  facet normal 0 0 1
    outer loop
      vertex -44.275 -72.3166 2
      vertex -36.5125 -68.1416 2
      vertex -38.3062 -67.661 2
    endloop
  endfacet
  facet normal 0 0 1
    outer loop
      vertex -44.275 -72.3166 2
      vertex -38.3062 -67.661 2
      vertex -39.6194 -66.3478 2
    endloop
  endfacet
  facet normal 0 0 1
    outer loop
      vertex -44.275 -72.3166 2
      vertex -39.6194 -66.3478 2
      vertex -40.1 -64.5541 2
    endloop
  endfacet
  facet normal 0 0 1
    outer loop
      vertex -44.275 72.3166 2
      vertex -40.1 67.7291 2
      vertex -39.6194 69.5228 2
    endloop
  endfacet
  facet normal 0 0 1
    outer loop
      vertex -44.275 72.3166 2
      vertex -39.6194 69.5228 2
      vertex -38.3062 70.836 2
    endloop
  endfacet
  facet normal 0 0 1
    outer loop
      vertex -44.275 72.3166 2
      vertex -38.3062 70.836 2
      vertex -36.5125 71.3166 2
    endloop
  endfacet
  facet normal -0 0 1
    outer loop
      vertex -44.275 72.3166 2
      vertex -36.5125 71.3166 2
      vertex 44.275 72.3166 2
    endloop
  endfacet
  facet normal -0 0 1
    outer loop
      vertex -36.5125 71.3166 2
      vertex 37.8937 70.836 2
      vertex 39.6875 71.3166 2
    endloop
  endfacet
  facet normal 0 0 1
    outer loop
      vertex -33.4056 69.5228 2
      vertex -32.925 67.7291 2
      vertex 36.1 67.7291 2
    endloop
  endfacet
  facet normal -0 0 1
    outer loop
      vertex -33.4056 69.5228 2
      vertex 36.1 67.7291 2
      vertex 36.5806 69.5228 2
    endloop
  endfacet
  facet normal -0 0 1
    outer loop
      vertex -36.5125 -60.9666 2
      vertex -34.7187 -61.4472 2
      vertex -34.7187 64.6222 2
    endloop
  endfacet
  facet normal 0 -0 1
    outer loop
      vertex -33.4056 69.5228 2
      vertex 36.5806 69.5228 2
      vertex -34.7187 70.836 2
    endloop
  endfacet
  facet normal -0 0 1
    outer loop
      vertex -32.925 67.7291 2
      vertex 36.5806 65.9353 2
      vertex 36.1 67.7291 2
    endloop
  endfacet
  facet normal 0 0 1
    outer loop
      vertex -36.5125 -60.9666 2
      vertex -36.5125 64.1416 2
      vertex -38.3062 -61.4472 2
    endloop
  endfacet
  facet normal -0 0 1
    outer loop
      vertex -36.5125 64.1416 2
      vertex -36.5125 -60.9666 2
      vertex -34.7187 64.6222 2
    endloop
  endfacet
  facet normal 0 0 1
    outer loop
      vertex -38.3062 64.6222 2
      vertex -38.3062 -61.4472 2
      vertex -36.5125 64.1416 2
    endloop
  endfacet
  facet normal 0 0 1
    outer loop
      vertex -38.3062 64.6222 2
      vertex -39.6194 65.9353 2
      vertex -39.6194 -62.7603 2
    endloop
  endfacet
  facet normal 0 0 1
    outer loop
      vertex -39.6194 65.9353 2
      vertex -44.275 72.3166 2
      vertex -39.6194 -62.7603 2
    endloop
  endfacet
  facet normal 0 0 1
    outer loop
      vertex -34.7187 -61.4472 2
      vertex 37.8937 64.6222 2
      vertex -34.7187 64.6222 2
    endloop
  endfacet
  facet normal 0 -0 1
    outer loop
      vertex 36.1 -64.5541 2
      vertex 36.5806 -62.7603 2
      vertex -33.4056 -62.7603 2
    endloop
  endfacet
  facet normal 0 -0 1
    outer loop
      vertex 36.5806 -62.7603 2
      vertex 37.8937 -61.4472 2
      vertex -34.7187 -61.4472 2
    endloop
  endfacet
  facet normal 0 -0 1
    outer loop
      vertex 39.6875 -60.9666 2
      vertex 41.4812 64.6222 2
      vertex 39.6875 64.1416 2
    endloop
  endfacet
  facet normal 0 -0 1
    outer loop
      vertex 41.4812 -61.4472 2
      vertex 41.4812 64.6222 2
      vertex 39.6875 -60.9666 2
    endloop
  endfacet
  facet normal -0 0 1
    outer loop
      vertex 39.6875 -68.1416 2
      vertex 44.275 -72.3166 2
      vertex 41.4812 -67.661 2
    endloop
  endfacet
  facet normal -0 0 1
    outer loop
      vertex 42.7944 -62.7603 2
      vertex 43.275 -64.5541 2
      vertex 43.275 67.7291 2
    endloop
  endfacet
  facet normal -0 0 1
    outer loop
      vertex 43.275 -64.5541 2
      vertex 44.275 -72.3166 2
      vertex 44.275 72.3166 2
    endloop
  endfacet
  facet normal -0 0 1
    outer loop
      vertex 42.7944 -66.3478 2
      vertex 44.275 -72.3166 2
      vertex 43.275 -64.5541 2
    endloop
  endfacet
  facet normal -0 0 1
    outer loop
      vertex 41.4812 -67.661 2
      vertex 44.275 -72.3166 2
      vertex 42.7944 -66.3478 2
    endloop
  endfacet
  facet normal 0 0 1
    outer loop
      vertex -34.7187 -67.661 2
      vertex 37.8937 -67.661 2
      vertex -33.4056 -66.3478 2
    endloop
  endfacet
  facet normal 0 0 1
    outer loop
      vertex 39.6875 -68.1416 2
      vertex 37.8937 -67.661 2
      vertex 44.275 -72.3166 2
    endloop
  endfacet
  facet normal 0 0 1
    outer loop
      vertex 37.8937 -67.661 2
      vertex 36.5806 -66.3478 2
      vertex -33.4056 -66.3478 2
    endloop
  endfacet
  facet normal 0 0 1
    outer loop
      vertex 36.5806 -66.3478 2
      vertex -32.925 -64.5541 2
      vertex -33.4056 -66.3478 2
    endloop
  endfacet
  facet normal -0 0 1
    outer loop
      vertex -34.7187 70.836 2
      vertex 36.5806 69.5228 2
      vertex 37.8937 70.836 2
    endloop
  endfacet
  facet normal 0 -0 1
    outer loop
      vertex -34.7187 70.836 2
      vertex 37.8937 70.836 2
      vertex -36.5125 71.3166 2
    endloop
  endfacet
  facet normal 0 0 1
    outer loop
      vertex -36.5125 71.3166 2
      vertex 39.6875 71.3166 2
      vertex 44.275 72.3166 2
    endloop
  endfacet
  facet normal -0 0 1
    outer loop
      vertex 39.6875 71.3166 2
      vertex 41.4812 70.836 2
      vertex 44.275 72.3166 2
    endloop
  endfacet
  facet normal 0 0 1
    outer loop
      vertex 42.7944 -62.7603 2
      vertex 43.275 67.7291 2
      vertex 42.7944 65.9353 2
    endloop
  endfacet
  facet normal -0 0 1
    outer loop
      vertex 41.4812 70.836 2
      vertex 42.7944 69.5228 2
      vertex 44.275 72.3166 2
    endloop
  endfacet
  facet normal -0 0 1
    outer loop
      vertex 41.4812 -61.4472 2
      vertex 42.7944 -62.7603 2
      vertex 42.7944 65.9353 2
    endloop
  endfacet
  facet normal -0 0 1
    outer loop
      vertex 42.7944 69.5228 2
      vertex 43.275 67.7291 2
      vertex 44.275 72.3166 2
    endloop
  endfacet
  facet normal -0 0 1
    outer loop
      vertex 43.275 67.7291 2
      vertex 43.275 -64.5541 2
      vertex 44.275 72.3166 2
    endloop
  endfacet
  facet normal 0 0 1
    outer loop
      vertex 41.4812 -61.4472 2
      vertex 42.7944 65.9353 2
      vertex 41.4812 64.6222 2
    endloop
  endfacet
  facet normal 0 0 1
    outer loop
      vertex 39.6875 -60.9666 2
      vertex 39.6875 64.1416 2
      vertex 37.8937 -61.4472 2
    endloop
  endfacet
  facet normal 0 -0 1
    outer loop
      vertex 37.8937 -61.4472 2
      vertex 37.8937 64.6222 2
      vertex -34.7187 -61.4472 2
    endloop
  endfacet
  facet normal 0 0 1
    outer loop
      vertex 37.8937 64.6222 2
      vertex -33.4056 65.9353 2
      vertex -34.7187 64.6222 2
    endloop
  endfacet
  facet normal 0 0 1
    outer loop
      vertex 39.6875 64.1416 2
      vertex 37.8937 64.6222 2
      vertex 37.8937 -61.4472 2
    endloop
  endfacet
  facet normal 0 0 1
    outer loop
      vertex 37.8937 64.6222 2
      vertex 36.5806 65.9353 2
      vertex -33.4056 65.9353 2
    endloop
  endfacet
  facet normal 0 0 1
    outer loop
      vertex 36.5806 65.9353 2
      vertex -32.925 67.7291 2
      vertex -33.4056 65.9353 2
    endloop
  endfacet
  facet normal 0 0 1
    outer loop
      vertex -36.0219 -63.0443 2
      vertex -36.0219 -66.0639 2
      vertex -34.925 -64.5541 2
    endloop
  endfacet
  facet normal 0 0 1
    outer loop
      vertex -36.0219 -63.0443 2
      vertex -37.7968 -63.621 2
      vertex -36.0219 -66.0639 2
    endloop
  endfacet
  facet normal 0 0 1
    outer loop
      vertex -37.7968 -63.621 2
      vertex -37.7968 -65.4872 2
      vertex -36.0219 -66.0639 2
    endloop
  endfacet
  facet normal 0 0 1
    outer loop
      vertex -36.0219 69.2389 2
      vertex -36.0219 66.2193 2
      vertex -34.925 67.7291 2
    endloop
  endfacet
  facet normal 0 0 1
    outer loop
      vertex -36.0219 69.2389 2
      vertex -37.7968 68.6622 2
      vertex -36.0219 66.2193 2
    endloop
  endfacet
  facet normal 0 0 1
    outer loop
      vertex -37.7968 68.6622 2
      vertex -37.7968 66.796 2
      vertex -36.0219 66.2193 2
    endloop
  endfacet
  facet normal 0 0 1
    outer loop
      vertex 40.1781 -63.0443 2
      vertex 40.1781 -66.0639 2
      vertex 41.275 -64.5541 2
    endloop
  endfacet
  facet normal 0 0 1
    outer loop
      vertex 40.1781 -63.0443 2
      vertex 38.4032 -63.621 2
      vertex 40.1781 -66.0639 2
    endloop
  endfacet
  facet normal 0 0 1
    outer loop
      vertex 38.4032 -63.621 2
      vertex 38.4032 -65.4872 2
      vertex 40.1781 -66.0639 2
    endloop
  endfacet
  facet normal 0 0 1
    outer loop
      vertex 40.1781 69.2389 2
      vertex 40.1781 66.2193 2
      vertex 41.275 67.7291 2
    endloop
  endfacet
  facet normal 0 0 1
    outer loop
      vertex 40.1781 69.2389 2
      vertex 38.4032 68.6622 2
      vertex 40.1781 66.2193 2
    endloop
  endfacet
  facet normal 0 0 1
    outer loop
      vertex 38.4032 68.6622 2
      vertex 38.4032 66.796 2
      vertex 40.1781 66.2193 2
    endloop
  endfacet
  facet normal 0 -1 0
    outer loop
      vertex -44.275 72.3166 2
      vertex 44.275 72.3166 2
      vertex -3.5 72.3166 14.732
    endloop
  endfacet
  facet normal 0 -1 0
    outer loop
      vertex -44.275 72.3166 27
      vertex -3.5 72.3166 14.732
      vertex -3.5 72.3166 17.732
    endloop
  endfacet
  facet normal 0 -1 0
    outer loop
      vertex -44.275 72.3166 27
      vertex 3.5 72.3166 17.732
      vertex 44.275 72.3166 27
    endloop
  endfacet
  facet normal 0 -1 0
    outer loop
      vertex 3.5 72.3166 14.732
      vertex 44.275 72.3166 27
      vertex 3.5 72.3166 17.732
    endloop
  endfacet
  facet normal 0 -1 0
    outer loop
      vertex -3.5 72.3166 17.732
      vertex 3.5 72.3166 17.732
      vertex -44.275 72.3166 27
    endloop
  endfacet
  facet normal 0 -1 0
    outer loop
      vertex 3.5 72.3166 14.732
      vertex 44.275 72.3166 2
      vertex 44.275 72.3166 27
    endloop
  endfacet
  facet normal 0 -1 0
    outer loop
      vertex 44.275 72.3166 2
      vertex 3.5 72.3166 14.732
      vertex -3.5 72.3166 14.732
    endloop
  endfacet
  facet normal 0 -1 0
    outer loop
      vertex -44.275 72.3166 2
      vertex -3.5 72.3166 14.732
      vertex -44.275 72.3166 27
    endloop
  endfacet
  facet normal -1 0 0
    outer loop
      vertex 44.275 72.3166 2
      vertex 44.275 -72.3166 27
      vertex 44.275 72.3166 27
    endloop
  endfacet
  facet normal -1 0 0
    outer loop
      vertex 44.275 72.3166 2
      vertex 44.275 -72.3166 2
      vertex 44.275 -72.3166 27
    endloop
  endfacet
  facet normal 0 0 1
    outer loop
      vertex -46.275 -74.3166 27
      vertex 46.275 -74.3166 27
      vertex -44.275 -72.3166 27
    endloop
  endfacet
  facet normal 0 0 1
    outer loop
      vertex -46.275 74.3166 27
      vertex -46.275 -74.3166 27
      vertex -44.275 72.3166 27
    endloop
  endfacet
  facet normal -0 0 1
    outer loop
      vertex -46.275 74.3166 27
      vertex 44.275 72.3166 27
      vertex 46.275 74.3166 27
    endloop
  endfacet
  facet normal -0 0 1
    outer loop
      vertex 44.275 -72.3166 27
      vertex 46.275 -74.3166 27
      vertex 44.275 72.3166 27
    endloop
  endfacet
  facet normal 0 -0 1
    outer loop
      vertex -44.275 72.3166 27
      vertex 44.275 72.3166 27
      vertex -46.275 74.3166 27
    endloop
  endfacet
  facet normal -0 0 1
    outer loop
      vertex 44.275 72.3166 27
      vertex 46.275 -74.3166 27
      vertex 46.275 74.3166 27
    endloop
  endfacet
  facet normal 0 0 1
    outer loop
      vertex 46.275 -74.3166 27
      vertex 44.275 -72.3166 27
      vertex -44.275 -72.3166 27
    endloop
  endfacet
  facet normal 0 0 1
    outer loop
      vertex -46.275 -74.3166 27
      vertex -44.275 -72.3166 27
      vertex -44.275 72.3166 27
    endloop
  endfacet
  facet normal 1 -0 0
    outer loop
      vertex -3.5 72.3166 17.732
      vertex -3.5 74.3166 14.732
      vertex -3.5 74.3166 17.732
    endloop
  endfacet
  facet normal 1 0 0
    outer loop
      vertex -3.5 72.3166 17.732
      vertex -3.5 72.3166 14.732
      vertex -3.5 74.3166 14.732
    endloop
  endfacet
  facet normal -0 0 1
    outer loop
      vertex -3.5 74.3166 14.732
      vertex 3.5 72.3166 14.732
      vertex 3.5 74.3166 14.732
    endloop
  endfacet
  facet normal 0 0 1
    outer loop
      vertex -3.5 74.3166 14.732
      vertex -3.5 72.3166 14.732
      vertex 3.5 72.3166 14.732
    endloop
  endfacet
  facet normal 0 0 -1
    outer loop
      vertex 3.5 72.3166 17.732
      vertex -3.5 74.3166 17.732
      vertex 3.5 74.3166 17.732
    endloop
  endfacet
  facet normal 0 0 -1
    outer loop
      vertex 3.5 72.3166 17.732
      vertex -3.5 72.3166 17.732
      vertex -3.5 74.3166 17.732
    endloop
  endfacet
  facet normal -1 0 0
    outer loop
      vertex 3.5 74.3166 14.732
      vertex 3.5 72.3166 17.732
      vertex 3.5 74.3166 17.732
    endloop
  endfacet
  facet normal -1 0 0
    outer loop
      vertex 3.5 74.3166 14.732
      vertex 3.5 72.3166 14.732
      vertex 3.5 72.3166 17.732
    endloop
  endfacet
  facet normal 1 0 0
    outer loop
      vertex 7.80023 -74.3166 13.7747
      vertex 7.80023 -72.3166 13.7747
      vertex 7.80023 -72.3166 15.6893
    endloop
  endfacet
  facet normal 1 -0 0
    outer loop
      vertex 7.80023 -74.3166 15.6893
      vertex 7.80023 -74.3166 13.7747
      vertex 7.80023 -72.3166 15.6893
    endloop
  endfacet
  facet normal 0.885456 3.91429e-16 0.464723
    outer loop
      vertex 7.80023 -74.3166 13.7747
      vertex 8.29452 -74.3166 12.8329
      vertex 8.09681 -72.3166 13.2097
    endloop
  endfacet
  facet normal 0.885456 0 0.464723
    outer loop
      vertex 7.80023 -72.3166 13.7747
      vertex 7.80023 -74.3166 13.7747
      vertex 8.09681 -72.3166 13.2097
    endloop
  endfacet
  facet normal -0.970942 0 0.239316
    outer loop
      vertex 15.2258 -74.3166 12.8731
      vertex 15.684 -74.3166 14.732
      vertex 15.684 -72.3166 14.732
    endloop
  endfacet
  facet normal -0.970942 0 0.239316
    outer loop
      vertex 15.2258 -72.3166 12.8731
      vertex 15.2258 -74.3166 12.8731
      vertex 15.684 -72.3166 14.732
    endloop
  endfacet
  facet normal 0.568065 0 -0.822984
    outer loop
      vertex 10.2656 -74.3166 18.4721
      vertex 8.68996 -72.3166 17.3845
      vertex 10.2656 -72.3166 18.4721
    endloop
  endfacet
  facet normal 0.568065 0 -0.822984
    outer loop
      vertex 10.2656 -74.3166 18.4721
      vertex 8.68996 -74.3166 17.3845
      vertex 8.68996 -72.3166 17.3845
    endloop
  endfacet
  facet normal -0.354605 0 -0.935016
    outer loop
      vertex 13.9563 -74.3166 18.0239
      vertex 12.1661 -72.3166 18.7028
      vertex 13.9563 -72.3166 18.0239
    endloop
  endfacet
  facet normal -0.354605 0 -0.935016
    outer loop
      vertex 13.9563 -74.3166 18.0239
      vertex 12.1661 -74.3166 18.7028
      vertex 12.1661 -72.3166 18.7028
    endloop
  endfacet
  facet normal -0.970942 0 -0.239316
    outer loop
      vertex 15.4804 -74.3166 15.5582
      vertex 15.684 -72.3166 14.732
      vertex 15.684 -74.3166 14.732
    endloop
  endfacet
  facet normal -0.970942 0 -0.239316
    outer loop
      vertex 15.4804 -74.3166 15.5582
      vertex 15.3785 -72.3166 15.9713
      vertex 15.684 -72.3166 14.732
    endloop
  endfacet
  facet normal 0.120537 0 -0.992709
    outer loop
      vertex 12.1661 -74.3166 18.7028
      vertex 10.2656 -72.3166 18.4721
      vertex 12.1661 -72.3166 18.7028
    endloop
  endfacet
  facet normal 0.120537 0 -0.992709
    outer loop
      vertex 12.1661 -74.3166 18.7028
      vertex 10.2656 -74.3166 18.4721
      vertex 10.2656 -72.3166 18.4721
    endloop
  endfacet
  facet normal 0.885456 0 -0.464723
    outer loop
      vertex 8.29452 -74.3166 16.6311
      vertex 8.68996 -72.3166 17.3845
      vertex 8.68996 -74.3166 17.3845
    endloop
  endfacet
  facet normal 0.885456 2.71826e-16 -0.464723
    outer loop
      vertex 8.29452 -74.3166 16.6311
      vertex 8.09681 -72.3166 16.2543
      vertex 8.68996 -72.3166 17.3845
    endloop
  endfacet
  facet normal 0.885456 0 -0.464723
    outer loop
      vertex 7.80023 -74.3166 15.6893
      vertex 7.80023 -72.3166 15.6893
      vertex 8.09681 -72.3166 16.2543
    endloop
  endfacet
  facet normal 0.885456 3.26191e-16 -0.464723
    outer loop
      vertex 8.29452 -74.3166 16.6311
      vertex 7.80023 -74.3166 15.6893
      vertex 8.09681 -72.3166 16.2543
    endloop
  endfacet
  facet normal 0.568065 -2.60953e-16 0.822984
    outer loop
      vertex 8.68996 -72.3166 12.0795
      vertex 9.39023 -74.3166 11.5961
      vertex 9.74037 -72.3166 11.3545
    endloop
  endfacet
  facet normal 0.568065 0 0.822984
    outer loop
      vertex 8.68996 -72.3166 12.0795
      vertex 8.68996 -74.3166 12.0795
      vertex 9.39023 -74.3166 11.5961
    endloop
  endfacet
  facet normal 0.885456 0 0.464723
    outer loop
      vertex 8.68996 -72.3166 12.0795
      vertex 8.29452 -74.3166 12.8329
      vertex 8.68996 -74.3166 12.0795
    endloop
  endfacet
  facet normal 0.885456 0 0.464723
    outer loop
      vertex 8.68996 -72.3166 12.0795
      vertex 8.09681 -72.3166 13.2097
      vertex 8.29452 -74.3166 12.8329
    endloop
  endfacet
  facet normal 0.568065 7.39366e-16 0.822984
    outer loop
      vertex 9.74037 -72.3166 11.3545
      vertex 10.2656 -74.3166 10.9919
      vertex 10.2656 -72.3166 10.9919
    endloop
  endfacet
  facet normal 0.568065 4.9581e-16 0.822984
    outer loop
      vertex 9.74037 -72.3166 11.3545
      vertex 9.39023 -74.3166 11.5961
      vertex 10.2656 -74.3166 10.9919
    endloop
  endfacet
  facet normal 0.120537 7.04572e-16 0.992709
    outer loop
      vertex 10.2656 -74.3166 10.9919
      vertex 11.3215 -74.3166 10.8637
      vertex 10.8991 -72.3166 10.915
    endloop
  endfacet
  facet normal 0.120537 8.81703e-16 0.992709
    outer loop
      vertex 10.2656 -72.3166 10.9919
      vertex 10.2656 -74.3166 10.9919
      vertex 10.8991 -72.3166 10.915
    endloop
  endfacet
  facet normal -0.748511 0 -0.663123
    outer loop
      vertex 15.2258 -74.3166 16.5909
      vertex 14.8026 -72.3166 17.0686
      vertex 15.2258 -72.3166 16.5909
    endloop
  endfacet
  facet normal -0.748511 -5.74096e-16 -0.663123
    outer loop
      vertex 15.2258 -74.3166 16.5909
      vertex 14.5205 -74.3166 17.387
      vertex 14.8026 -72.3166 17.0686
    endloop
  endfacet
  facet normal -0.748511 -3.37064e-16 -0.663123
    outer loop
      vertex 14.5205 -74.3166 17.387
      vertex 13.9563 -72.3166 18.0239
      vertex 14.8026 -72.3166 17.0686
    endloop
  endfacet
  facet normal -0.748511 0 -0.663123
    outer loop
      vertex 14.5205 -74.3166 17.387
      vertex 13.9563 -74.3166 18.0239
      vertex 13.9563 -72.3166 18.0239
    endloop
  endfacet
  facet normal -0.970942 0 -0.239316
    outer loop
      vertex 15.2258 -74.3166 16.5909
      vertex 15.2258 -72.3166 16.5909
      vertex 15.3785 -72.3166 15.9713
    endloop
  endfacet
  facet normal -0.970942 -3.91429e-16 -0.239316
    outer loop
      vertex 15.4804 -74.3166 15.5582
      vertex 15.2258 -74.3166 16.5909
      vertex 15.3785 -72.3166 15.9713
    endloop
  endfacet
  facet normal -0.354605 0 0.935016
    outer loop
      vertex 12.1661 -72.3166 10.7612
      vertex 13.9563 -74.3166 11.4401
      vertex 13.9563 -72.3166 11.4401
    endloop
  endfacet
  facet normal -0.354605 0 0.935016
    outer loop
      vertex 12.1661 -72.3166 10.7612
      vertex 12.1661 -74.3166 10.7612
      vertex 13.9563 -74.3166 11.4401
    endloop
  endfacet
  facet normal -0.748511 0 0.663123
    outer loop
      vertex 13.9563 -74.3166 11.4401
      vertex 15.2258 -74.3166 12.8731
      vertex 15.2258 -72.3166 12.8731
    endloop
  endfacet
  facet normal -0.748511 0 0.663123
    outer loop
      vertex 13.9563 -72.3166 11.4401
      vertex 13.9563 -74.3166 11.4401
      vertex 15.2258 -72.3166 12.8731
    endloop
  endfacet
  facet normal 0.120537 0 0.992709
    outer loop
      vertex 12.1661 -72.3166 10.7612
      vertex 11.3215 -74.3166 10.8637
      vertex 12.1661 -74.3166 10.7612
    endloop
  endfacet
  facet normal 0.120537 2.60953e-16 0.992709
    outer loop
      vertex 12.1661 -72.3166 10.7612
      vertex 10.8991 -72.3166 10.915
      vertex 11.3215 -74.3166 10.8637
    endloop
  endfacet
  facet normal 1 0 0
    outer loop
      vertex -15.5678 -74.3166 13.7747
      vertex -15.5678 -72.3166 13.7747
      vertex -15.5678 -72.3166 15.6893
    endloop
  endfacet
  facet normal 1 -0 0
    outer loop
      vertex -15.5678 -74.3166 15.6893
      vertex -15.5678 -74.3166 13.7747
      vertex -15.5678 -72.3166 15.6893
    endloop
  endfacet
  facet normal 0.885456 7.82858e-17 0.464723
    outer loop
      vertex -15.5678 -74.3166 13.7747
      vertex -15.0735 -74.3166 12.8329
      vertex -15.2712 -72.3166 13.2097
    endloop
  endfacet
  facet normal 0.885456 0 0.464723
    outer loop
      vertex -15.5678 -72.3166 13.7747
      vertex -15.5678 -74.3166 13.7747
      vertex -15.2712 -72.3166 13.2097
    endloop
  endfacet
  facet normal 0.568065 0 -0.822984
    outer loop
      vertex -13.1024 -74.3166 18.4721
      vertex -14.678 -72.3166 17.3845
      vertex -13.1024 -72.3166 18.4721
    endloop
  endfacet
  facet normal 0.568065 0 -0.822984
    outer loop
      vertex -13.1024 -74.3166 18.4721
      vertex -14.678 -74.3166 17.3845
      vertex -14.678 -72.3166 17.3845
    endloop
  endfacet
  facet normal 0.120537 0 0.992709
    outer loop
      vertex -11.2019 -72.3166 10.7612
      vertex -12.0465 -74.3166 10.8637
      vertex -11.2019 -74.3166 10.7612
    endloop
  endfacet
  facet normal 0.120537 2.93572e-16 0.992709
    outer loop
      vertex -11.2019 -72.3166 10.7612
      vertex -12.4689 -72.3166 10.915
      vertex -12.0465 -74.3166 10.8637
    endloop
  endfacet
  facet normal -0.354605 0 -0.935016
    outer loop
      vertex -9.41174 -74.3166 18.0239
      vertex -11.2019 -72.3166 18.7028
      vertex -9.41174 -72.3166 18.0239
    endloop
  endfacet
  facet normal -0.354605 0 -0.935016
    outer loop
      vertex -9.41174 -74.3166 18.0239
      vertex -11.2019 -74.3166 18.7028
      vertex -11.2019 -72.3166 18.7028
    endloop
  endfacet
  facet normal -0.970942 0 -0.239316
    outer loop
      vertex -7.88763 -74.3166 15.5582
      vertex -7.684 -72.3166 14.732
      vertex -7.684 -74.3166 14.732
    endloop
  endfacet
  facet normal -0.970942 1.46786e-16 -0.239316
    outer loop
      vertex -7.88763 -74.3166 15.5582
      vertex -7.98945 -72.3166 15.9713
      vertex -7.684 -72.3166 14.732
    endloop
  endfacet
  facet normal 0.120537 0 -0.992709
    outer loop
      vertex -11.2019 -74.3166 18.7028
      vertex -13.1024 -72.3166 18.4721
      vertex -11.2019 -72.3166 18.7028
    endloop
  endfacet
  facet normal 0.120537 0 -0.992709
    outer loop
      vertex -11.2019 -74.3166 18.7028
      vertex -13.1024 -74.3166 18.4721
      vertex -13.1024 -72.3166 18.4721
    endloop
  endfacet
  facet normal 0.885456 0 -0.464723
    outer loop
      vertex -15.0735 -74.3166 16.6311
      vertex -14.678 -72.3166 17.3845
      vertex -14.678 -74.3166 17.3845
    endloop
  endfacet
  facet normal 0.885456 2.71826e-16 -0.464723
    outer loop
      vertex -15.0735 -74.3166 16.6311
      vertex -15.2712 -72.3166 16.2543
      vertex -14.678 -72.3166 17.3845
    endloop
  endfacet
  facet normal 0.885456 0 -0.464723
    outer loop
      vertex -15.5678 -74.3166 15.6893
      vertex -15.5678 -72.3166 15.6893
      vertex -15.2712 -72.3166 16.2543
    endloop
  endfacet
  facet normal 0.885456 3.26191e-16 -0.464723
    outer loop
      vertex -15.0735 -74.3166 16.6311
      vertex -15.5678 -74.3166 15.6893
      vertex -15.2712 -72.3166 16.2543
    endloop
  endfacet
  facet normal 0.568065 -8.69842e-17 0.822984
    outer loop
      vertex -14.678 -72.3166 12.0795
      vertex -13.9778 -74.3166 11.5961
      vertex -13.6276 -72.3166 11.3545
    endloop
  endfacet
  facet normal 0.568065 0 0.822984
    outer loop
      vertex -14.678 -72.3166 12.0795
      vertex -14.678 -74.3166 12.0795
      vertex -13.9778 -74.3166 11.5961
    endloop
  endfacet
  facet normal 0.885456 0 0.464723
    outer loop
      vertex -14.678 -72.3166 12.0795
      vertex -15.0735 -74.3166 12.8329
      vertex -14.678 -74.3166 12.0795
    endloop
  endfacet
  facet normal 0.885456 2.60953e-16 0.464723
    outer loop
      vertex -14.678 -72.3166 12.0795
      vertex -15.2712 -72.3166 13.2097
      vertex -15.0735 -74.3166 12.8329
    endloop
  endfacet
  facet normal 0.568065 7.39366e-16 0.822984
    outer loop
      vertex -13.6276 -72.3166 11.3545
      vertex -13.1024 -74.3166 10.9919
      vertex -13.1024 -72.3166 10.9919
    endloop
  endfacet
  facet normal 0.568065 2.87048e-16 0.822984
    outer loop
      vertex -13.6276 -72.3166 11.3545
      vertex -13.9778 -74.3166 11.5961
      vertex -13.1024 -74.3166 10.9919
    endloop
  endfacet
  facet normal 0.120537 6.65429e-16 0.992709
    outer loop
      vertex -13.1024 -74.3166 10.9919
      vertex -12.0465 -74.3166 10.8637
      vertex -12.4689 -72.3166 10.915
    endloop
  endfacet
  facet normal 0.120537 8.81703e-16 0.992709
    outer loop
      vertex -13.1024 -72.3166 10.9919
      vertex -13.1024 -74.3166 10.9919
      vertex -12.4689 -72.3166 10.915
    endloop
  endfacet
  facet normal -0.970942 0 -0.239316
    outer loop
      vertex -8.14218 -74.3166 16.5909
      vertex -8.14218 -72.3166 16.5909
      vertex -7.98945 -72.3166 15.9713
    endloop
  endfacet
  facet normal -0.970942 2.15286e-16 -0.239316
    outer loop
      vertex -7.88763 -74.3166 15.5582
      vertex -8.14218 -74.3166 16.5909
      vertex -7.98945 -72.3166 15.9713
    endloop
  endfacet
  facet normal -0.970942 0 0.239316
    outer loop
      vertex -8.14218 -74.3166 12.8731
      vertex -7.684 -74.3166 14.732
      vertex -7.684 -72.3166 14.732
    endloop
  endfacet
  facet normal -0.970942 0 0.239316
    outer loop
      vertex -8.14218 -72.3166 12.8731
      vertex -8.14218 -74.3166 12.8731
      vertex -7.684 -72.3166 14.732
    endloop
  endfacet
  facet normal -0.354605 0 0.935016
    outer loop
      vertex -11.2019 -72.3166 10.7612
      vertex -9.41174 -74.3166 11.4401
      vertex -9.41174 -72.3166 11.4401
    endloop
  endfacet
  facet normal -0.354605 0 0.935016
    outer loop
      vertex -11.2019 -72.3166 10.7612
      vertex -11.2019 -74.3166 10.7612
      vertex -9.41174 -74.3166 11.4401
    endloop
  endfacet
  facet normal -0.748511 -5.65397e-16 -0.663123
    outer loop
      vertex -8.84749 -74.3166 17.387
      vertex -9.41174 -72.3166 18.0239
      vertex -8.56536 -72.3166 17.0686
    endloop
  endfacet
  facet normal -0.748511 0 -0.663123
    outer loop
      vertex -8.84749 -74.3166 17.387
      vertex -9.41174 -74.3166 18.0239
      vertex -9.41174 -72.3166 18.0239
    endloop
  endfacet
  facet normal -0.748511 0 -0.663123
    outer loop
      vertex -8.14218 -74.3166 16.5909
      vertex -8.56536 -72.3166 17.0686
      vertex -8.14218 -72.3166 16.5909
    endloop
  endfacet
  facet normal -0.748511 -3.13143e-16 -0.663123
    outer loop
      vertex -8.14218 -74.3166 16.5909
      vertex -8.84749 -74.3166 17.387
      vertex -8.56536 -72.3166 17.0686
    endloop
  endfacet
  facet normal -0.748511 0 0.663123
    outer loop
      vertex -9.41174 -74.3166 11.4401
      vertex -8.14218 -74.3166 12.8731
      vertex -8.14218 -72.3166 12.8731
    endloop
  endfacet
  facet normal -0.748511 0 0.663123
    outer loop
      vertex -9.41174 -72.3166 11.4401
      vertex -9.41174 -74.3166 11.4401
      vertex -8.14218 -72.3166 12.8731
    endloop
  endfacet
endsolid OpenSCAD_Model
